<svg xmlns="http://www.w3.org/2000/svg" xmlns:xlink="http://www.w3.org/1999/xlink" viewBox="0 0 1010.86 908.94"><defs><style>.cls-1{mask:url(#mask);}.cls-2,.cls-4{mix-blend-mode:multiply;}.cls-2{fill:url(#linear-gradient);}.cls-3{mask:url(#mask-2);}.cls-4{fill:url(#linear-gradient-2);}.cls-5{mask:url(#mask-3);}.cls-6,.cls-8{opacity:0.3;}.cls-6{fill:url(#linear-gradient-3);}.cls-7{mask:url(#mask-4);}.cls-8{fill:url(#linear-gradient-4);}.cls-10,.cls-22,.cls-9{fill:#fcbb14;}.cls-9{opacity:0.05;}.cls-10,.cls-11,.cls-12,.cls-13,.cls-14,.cls-15,.cls-19,.cls-20{opacity:0.9;}.cls-11,.cls-18{fill:#f16d23;}.cls-12,.cls-17{fill:#63c7d7;}.cls-13,.cls-21{fill:#1ea013;}.cls-14{fill:#dfe5cb;}.cls-15,.cls-16{fill:#1299a1;}.cls-19,.cls-23{fill:#00aad5;}.cls-24{filter:url(#luminosity-noclip-4);}.cls-25{filter:url(#luminosity-noclip-3);}.cls-26{filter:url(#luminosity-noclip-2);}.cls-27{filter:url(#luminosity-noclip);}</style><filter id="luminosity-noclip" x="0" y="-8592" width="800" height="32766" filterUnits="userSpaceOnUse" color-interpolation-filters="sRGB"><feFlood flood-color="#fff" result="bg"/><feBlend in="SourceGraphic" in2="bg"/></filter><mask id="mask" x="0" y="-8592" width="800" height="32766" maskUnits="userSpaceOnUse"><g class="cls-27"/></mask><linearGradient id="linear-gradient" x1="587.8" y1="500.57" x2="1106.48" y2="-117.58" gradientTransform="matrix(-1, 0, 0, 1, 1247.14, 0)" gradientUnits="userSpaceOnUse"><stop offset="0.56"/><stop offset="1" stop-color="#fff"/></linearGradient><filter id="luminosity-noclip-2" x="0" y="-8592" width="819" height="32766" filterUnits="userSpaceOnUse" color-interpolation-filters="sRGB"><feFlood flood-color="#fff" result="bg"/><feBlend in="SourceGraphic" in2="bg"/></filter><mask id="mask-2" x="0" y="-8592" width="819" height="32766" maskUnits="userSpaceOnUse"><g class="cls-26"/></mask><linearGradient id="linear-gradient-2" x1="122.04" y1="82.17" x2="658.96" y2="-557.7" gradientTransform="translate(800 361.09) rotate(180)" xlink:href="#linear-gradient"/><filter id="luminosity-noclip-3" x="0" y="0.45" width="800" height="382.09" filterUnits="userSpaceOnUse" color-interpolation-filters="sRGB"><feFlood flood-color="#fff" result="bg"/><feBlend in="SourceGraphic" in2="bg"/></filter><mask id="mask-3" x="122.98" y="49.38" width="800" height="382.09" maskUnits="userSpaceOnUse"><g class="cls-25"><g transform="translate(122.98 48.93)"><g class="cls-1"><rect class="cls-2" y="0.45" width="800" height="382.09"/></g></g></g></mask><linearGradient id="linear-gradient-3" x1="847.14" y1="382.54" x2="847.14" y2="0.45" gradientTransform="matrix(-1, 0, 0, 1, 1370.12, 48.93)" gradientUnits="userSpaceOnUse"><stop offset="0.57" stop-color="#fff"/><stop offset="1" stop-color="#fcbb14"/></linearGradient><filter id="luminosity-noclip-4" x="0" y="397.27" width="819" height="403.18" filterUnits="userSpaceOnUse" color-interpolation-filters="sRGB"><feFlood flood-color="#fff" result="bg"/><feBlend in="SourceGraphic" in2="bg"/></filter><mask id="mask-4" x="122.98" y="446.2" width="819" height="403.18" maskUnits="userSpaceOnUse"><g class="cls-24"><g transform="translate(122.98 48.93)"><g class="cls-3"><rect class="cls-4" y="397.27" width="819" height="403.18"/></g></g></g></mask><linearGradient id="linear-gradient-4" x1="390.5" y1="-36.17" x2="390.5" y2="-439.35" gradientTransform="translate(922.98 410.03) rotate(180)" gradientUnits="userSpaceOnUse"><stop offset="0.56" stop-color="#fff"/><stop offset="1" stop-color="#fcbb14"/></linearGradient></defs><title>orange_svgbg</title><g id="_1" data-name="1"><g class="cls-5"><rect class="cls-6" x="122.98" y="49.38" width="800" height="382.09"/></g><g class="cls-7"><rect class="cls-8" x="122.98" y="446.2" width="819" height="403.18"/></g><path class="cls-9" d="M293.19,324.63c-33.35,41.81-51.68,84.28-54.43,126.23-3.06,47.3,10.41,92.23,40.15,133.53,31.49,44,71.29,67.84,118.24,70.9A221.42,221.42,0,0,0,441.48,654c2.81,15.93,5.62,31.78,8.27,47.46,3.26,21.21,4.41,39.61,3.42,54.68-1.37,20.82-7.89,37.85-19.36,50.65-12.44,13.8-27.92,19.87-47.56,18.59a50.81,50.81,0,0,1-22.72-6.68,53.46,53.46,0,0,0,21.08-10c12-9.33,18.73-22.83,19.83-40.18,1-16.64-3.18-31.24-12.63-43.28-10.06-13.19-23.73-20.44-40.63-21.56-17.25-1.15-32.9,5.85-45.74,20.41a74,74,0,0,0-18.88,45.16c-1.66,25.49,8,47.23,28.84,64.64,18.27,15.24,40.15,23.8,65,25.43A107.61,107.61,0,0,0,421,854.56a109.57,109.57,0,0,0,29.93-15.36c22.79-16.42,35.17-37.88,36.86-63.84,1.31-19.81.3-43.28-3-70l-9.29-60.24a122.54,122.54,0,0,0,59.31-42.6c16.51-21.46,25.81-46.83,27.69-75.34,2.3-35-6.07-66.82-24.91-94.44-20.67-30.29-49-46.82-84.18-49.12a89.44,89.44,0,0,0-12.73.09l-9.9-74c27.44-23.46,49.67-52.94,66.08-87.69a306.38,306.38,0,0,0,28.36-111c1.5-23-1.68-51.58-9.39-84.93-10.6-45.24-25.71-67.87-46.25-69.23-7.28-.45-15.27,3.24-25,11.82a184.74,184.74,0,0,0-51.26,77c-8,22.64-13.25,52.92-15.71,90-1.21,18.49,1.71,49.89,9,95.94C342.88,270.34,311.52,301.64,293.19,324.63Zm204.76,203c0,24.24-12,64.93-28.65,74.87L452.08,472.19A56.58,56.58,0,0,1,497.94,527.64ZM412.6,175.1c1.53-23.61,7.47-49.25,17.66-76.14,12.9-33.66,25.14-43.85,33.12-46.44a17,17,0,0,1,6.58-.83c10.41.67,20.77,5.08,19,32.61-1.5,23.31-10.75,48-27.47,73.49-13.45,20.52-29,37.66-46.49,51C412.57,199.24,411.74,187.93,412.6,175.1Zm-13.1,159.44,6.8,56.05a125.45,125.45,0,0,0-49.09,36.79c-15.78,19.35-24.56,40.68-26,63.4-1.53,23.54,3.74,45.13,15.65,64a96.28,96.28,0,0,0,24.5,26.31c16,11.95,34.53,11.05,37.47,4.54s-8-16.64-16.66-30.21c-4.92-7.7-7.3-16.93-7.3-27.79A56.61,56.61,0,0,1,418.56,476l18.56,144.56a124.34,124.34,0,0,1-33,1.92c-30.87-2-58.42-14.72-82-37.82-24.59-24-35.61-50.4-33.63-80.78C292.35,446.35,329.66,389.44,399.51,334.54Z" transform="translate(122.98 48.93)"/><path class="cls-9" d="M-26.15,318.89c-33.35,41.81-51.68,84.28-54.43,126.23-3.06,47.3,10.41,92.23,40.15,133.53,31.49,44,71.29,67.84,118.24,70.9a221.42,221.42,0,0,0,44.33-1.24c2.81,15.93,5.62,31.78,8.27,47.46,3.26,21.21,4.41,39.61,3.42,54.68-1.37,20.82-7.89,37.85-19.36,50.65C102,814.9,86.56,821,66.92,819.69A50.81,50.81,0,0,1,44.2,813a53.46,53.46,0,0,0,21.08-10c12-9.33,18.73-22.84,19.83-40.18,1-16.64-3.18-31.24-12.63-43.28C62.42,706.4,48.75,699.16,31.85,698c-17.25-1.15-32.9,5.85-45.74,20.41a74,74,0,0,0-18.88,45.16c-1.66,25.49,8,47.23,28.84,64.64,18.27,15.24,40.15,23.8,65,25.43a107.61,107.61,0,0,0,40.54-4.86,109.56,109.56,0,0,0,29.93-15.36c22.79-16.42,35.17-37.88,36.86-63.84,1.31-19.81.3-43.28-3-70l-9.29-60.24a122.54,122.54,0,0,0,59.31-42.6c16.51-21.46,25.81-46.83,27.69-75.34,2.3-35-6.07-66.82-24.91-94.44-20.67-30.29-49-46.82-84.18-49.12a89.44,89.44,0,0,0-12.73.09l-9.9-74c27.44-23.46,49.67-52.94,66.08-87.69a306.38,306.38,0,0,0,28.36-111c1.5-23-1.68-51.58-9.39-84.93-10.6-45.24-25.71-67.87-46.25-69.23-7.28-.45-15.27,3.24-25,11.82a184.74,184.74,0,0,0-51.26,77c-8,22.64-13.25,52.92-15.71,90-1.21,18.49,1.71,49.89,9,95.94C23.55,264.6-7.82,295.9-26.15,318.89Zm204.76,203c0,24.24-12,64.93-28.65,74.87L132.75,466.45A56.58,56.58,0,0,1,178.61,521.9ZM93.27,169.36c1.53-23.6,7.47-49.25,17.66-76.14,12.9-33.66,25.14-43.85,33.12-46.44a17,17,0,0,1,6.58-.83c10.41.67,20.77,5.08,19,32.61-1.5,23.31-10.75,48-27.47,73.49-13.45,20.52-29,37.66-46.49,51C93.24,193.5,92.41,182.19,93.27,169.36ZM80.17,328.8,87,384.85a125.45,125.45,0,0,0-49.09,36.79C22.11,441,13.33,462.33,11.86,485c-1.53,23.54,3.74,45.13,15.65,64A96.28,96.28,0,0,0,52,575.39c16,11.95,34.53,11.05,37.47,4.54s-8-16.64-16.66-30.21c-4.92-7.7-7.3-16.93-7.3-27.79a56.61,56.61,0,0,1,33.71-51.68L117.78,614.8a124.34,124.34,0,0,1-33,1.92c-30.87-2-58.42-14.72-82-37.82-24.59-24-35.61-50.4-33.63-80.78C-27,440.61,10.32,383.69,80.17,328.8Z" transform="translate(122.98 48.93)"/><path class="cls-9" d="M618.23,325c-33.35,41.81-51.68,84.28-54.43,126.23-3.06,47.3,10.41,92.23,40.15,133.53,31.49,44,71.29,67.84,118.24,70.9a221.41,221.41,0,0,0,44.33-1.24c2.81,15.93,5.62,31.78,8.27,47.46,3.26,21.21,4.41,39.61,3.42,54.68-1.37,20.82-7.89,37.85-19.36,50.65C746.42,821,730.95,827,711.3,825.77a50.81,50.81,0,0,1-22.72-6.68,53.47,53.47,0,0,0,21.08-10c12-9.33,18.73-22.84,19.83-40.18,1-16.64-3.18-31.24-12.63-43.28-10.06-13.19-23.73-20.44-40.62-21.56C659,703,643.34,710,630.5,724.53a74,74,0,0,0-18.87,45.16c-1.66,25.49,8,47.23,28.84,64.64,18.27,15.24,40.15,23.8,65,25.43a107.61,107.61,0,0,0,40.54-4.86A109.58,109.58,0,0,0,776,839.54c22.79-16.42,35.17-37.88,36.86-63.84,1.31-19.81.3-43.28-3-70l-9.29-60.24a122.54,122.54,0,0,0,59.31-42.6c16.52-21.46,25.81-46.83,27.69-75.34,2.3-35-6.07-66.82-24.91-94.44-20.67-30.29-49-46.82-84.18-49.12a89.42,89.42,0,0,0-12.73.09l-9.9-74c27.44-23.46,49.66-52.94,66.08-87.69a306.38,306.38,0,0,0,28.36-111c1.5-23-1.68-51.58-9.39-84.93-10.61-45.24-25.71-67.87-46.25-69.23-7.28-.45-15.27,3.24-25,11.82A184.75,184.75,0,0,0,718.3,46c-8,22.64-13.25,52.92-15.71,90-1.21,18.49,1.71,49.89,9,95.94C667.93,270.68,636.57,302,618.23,325ZM823,528c0,24.24-12,64.93-28.65,74.87L777.13,472.53A56.58,56.58,0,0,1,823,528ZM737.65,175.44c1.53-23.61,7.47-49.25,17.66-76.14,12.9-33.66,25.14-43.85,33.12-46.44A17,17,0,0,1,795,52c10.41.67,20.77,5.08,19,32.61-1.5,23.31-10.75,48-27.47,73.49-13.45,20.52-29.05,37.66-46.49,51C737.62,199.58,736.79,188.27,737.65,175.44Zm-13.1,159.44,6.8,56.05a125.44,125.44,0,0,0-49.09,36.79c-15.78,19.35-24.56,40.68-26,63.4-1.54,23.54,3.74,45.13,15.65,64a96.28,96.28,0,0,0,24.5,26.31c16,11.95,34.53,11.05,37.46,4.54s-8-16.64-16.66-30.21c-4.92-7.7-7.3-16.93-7.3-27.79a56.61,56.61,0,0,1,33.71-51.68l18.55,144.56a124.33,124.33,0,0,1-33,1.92c-30.87-2-58.42-14.72-82-37.82-24.59-24-35.61-50.4-33.63-80.78C617.4,446.69,654.71,389.78,724.56,334.88Z" transform="translate(122.98 48.93)"/></g><g id="_2" data-name="2"><path class="cls-10" d="M887,332l-10.84,3.43c-3.51,1.19-7.78,2.81-12.83,4.64l-8,3.27c-1.42.59-2.91,1.16-4.4,1.81l-4.61,2c-12.66,5.56-27.73,13-44.65,22.18s-35.72,20.11-56.24,32-42.7,24.92-66.64,37.86l-9,4.87-9.23,4.82c-6.17,3.27-12.53,6.36-18.92,9.57-12.86,6.25-26.12,12.4-39.88,18-6.83,2.93-13.86,5.56-20.9,8.27-1.75.7-3.54,1.33-5.33,1.95l-5.37,1.89c-3.6,1.23-7.16,2.59-10.83,3.69l-11,3.47c-1.83.61-3.69,1.11-5.55,1.62L537.15,499c-7.43,2.2-15,3.86-22.63,5.71-1.89.49-3.82.82-5.74,1.21L503,507.06c-3.85.76-7.69,1.58-11.59,2.13L479.74,511c-1.94.35-3.92.49-5.88.74l-5.89.67c-7.85,1.05-15.78,1.38-23.69,2-2,.18-4,.17-5.95.23l-6,.14-6,.15c-1,0-2,.07-3,0l-3,0-11.86-.19c-2,0-4-.1-5.94-.21l-6-.29c-4-.19-7.94-.34-11.88-.72l-11.83-1a415,415,0,0,1-46.62-7.43,427.77,427.77,0,0,1-44.72-12.54c-14.51-4.87-28.62-10.25-42.49-15.47l-10.36-3.87-10.29-3.77-10.23-3.6c-3.39-1.2-6.8-2.3-10.17-3.44s-6.75-2.18-10.11-3.23l-5-1.57c-1.67-.52-3.35-1-5-1.46-3.35-.94-6.66-1.93-10-2.82L158,450.81c-3.27-.89-6.57-1.56-9.82-2.32s-6.48-1.53-9.72-2.15l-9.62-1.9c-1.59-.31-3.17-.64-4.76-.92l-4.74-.79L110,441.16c-3.09-.55-6.18-.89-9.23-1.34l-9.06-1.25c-3-.42-6-.68-8.91-1-11.76-1.42-23.08-2.23-33.85-3.1-10.78-.64-21-1.35-30.63-1.59-4.81-.16-9.47-.36-14-.48l-13-.17c-4.17,0-8.17-.13-12-.14l-10.92.09-9.81.08c-3.08,0-6,0-8.65.12l-13.65.35L-75,433l11.36-.51,13.64-.61c5.37-.28,11.55-.32,18.47-.5l10.93-.24c3.82,0,7.83,0,12,0h13c4.5.05,9.17.19,14,.28,9.65.1,19.9.67,30.71,1.16,10.8.72,22.16,1.48,34,2.78,3,.32,5.95.56,9,1l9.11,1.18c3.06.42,6.17.74,9.27,1.26l9.41,1.49,4.77.75c1.59.27,3.18.59,4.79.88l9.68,1.82c3.25.6,6.5,1.39,9.78,2.08s6.6,1.38,9.9,2.25l10,2.47c3.34.86,6.68,1.83,10.06,2.75,1.68.47,3.38.91,5.07,1.42l5.06,1.53c3.38,1,6.8,2,10.19,3.16,13.64,4.32,27.36,9.37,41.25,14.55s28,10.51,42.41,15.3a424.35,424.35,0,0,0,44.37,12.31,411.39,411.39,0,0,0,46.2,7.23l11.74.94c3.91.36,7.84.5,11.76.68l5.89.27c2,.1,3.92.19,5.9.19l11.86.17,3,0c.93,0,2,0,2.92,0l5.9-.13,5.9-.13c2-.06,3.93,0,5.89-.21,7.84-.58,15.7-.88,23.47-1.9l5.84-.65c1.94-.24,3.9-.37,5.83-.71l11.58-1.79c3.87-.53,7.68-1.33,11.5-2.08l5.72-1.12c1.9-.39,3.82-.7,5.7-1.19,7.54-1.81,15.09-3.44,22.47-5.6l5.55-1.53c1.85-.51,3.7-1,5.52-1.6l10.92-3.41c3.65-1.08,7.2-2.42,10.77-3.63l5.34-1.86c1.78-.61,3.55-1.23,5.3-1.92,7-2.68,14-5.27,20.81-8.16,27.36-11.25,53-23.94,77-36.65s46.27-25.52,66.89-37.24S783.87,377,801,368.07s32.28-16.2,45-21.59l4.65-2c1.51-.63,3-1.18,4.44-1.75l8.08-3.12c5.09-1.74,9.4-3.28,12.93-4.4Z" transform="translate(122.98 48.93)"/><path class="cls-11" d="M887,319.5l-10.84,3.43c-3.51,1.19-7.78,2.81-12.83,4.64l-8,3.27c-1.42.59-2.91,1.16-4.4,1.81l-4.61,2c-12.66,5.56-27.73,13-44.65,22.18s-35.72,20.11-56.24,32-42.7,24.92-66.64,37.86l-9,4.87-9.23,4.82c-6.17,3.27-12.53,6.36-18.92,9.57-12.86,6.25-26.12,12.4-39.88,18-6.83,2.93-13.85,5.56-20.9,8.27-1.75.7-3.54,1.33-5.33,1.95l-5.37,1.89c-3.6,1.23-7.16,2.59-10.83,3.69l-11,3.47c-1.83.61-3.69,1.11-5.55,1.62l-5.59,1.55c-7.43,2.2-15,3.86-22.63,5.71-1.89.49-3.82.82-5.74,1.21L503,494.56c-3.85.76-7.69,1.58-11.59,2.13l-11.68,1.84c-1.94.35-3.92.49-5.88.74l-5.89.67c-7.85,1.05-15.78,1.38-23.69,2-2,.18-4,.17-5.95.23l-6,.14-6,.15c-1,0-2,.07-3,0l-3,0-11.86-.19c-2,0-4-.1-5.94-.21l-6-.29c-4-.19-7.94-.34-11.88-.72l-11.83-1a415,415,0,0,1-46.62-7.43,427.77,427.77,0,0,1-44.72-12.54c-14.51-4.87-28.62-10.25-42.49-15.47l-10.36-3.87L218.49,457l-10.23-3.6c-3.39-1.2-6.8-2.3-10.17-3.44s-6.75-2.18-10.11-3.23l-5-1.57c-1.67-.52-3.36-1-5-1.46-3.35-.94-6.66-1.93-10-2.82l-9.91-2.54c-3.27-.89-6.57-1.56-9.82-2.32s-6.48-1.53-9.72-2.15l-9.62-1.9c-1.59-.31-3.17-.64-4.76-.92l-4.74-.79L110,428.66c-3.09-.55-6.18-.89-9.23-1.34l-9.06-1.25c-3-.42-6-.68-8.91-1C71.08,423.63,59.75,422.82,49,422c-10.78-.64-21-1.35-30.63-1.59-4.81-.16-9.47-.36-14-.48l-13-.17c-4.17,0-8.17-.13-12-.14l-10.92.09-9.81.08c-3.08,0-6,0-8.65.12l-13.65.35L-75,420.5l11.36-.51,13.64-.61c5.37-.28,11.55-.32,18.47-.5l10.93-.24c3.82,0,7.83,0,12,0h13c4.5.05,9.17.19,14,.28,9.65.1,19.9.67,30.71,1.16,10.8.72,22.16,1.48,34,2.78,3,.32,5.95.56,9,1l9.11,1.18c3.06.42,6.17.74,9.27,1.26l9.41,1.49,4.77.75c1.59.27,3.18.59,4.79.88l9.68,1.82c3.26.6,6.5,1.39,9.79,2.08s6.6,1.38,9.9,2.25l10,2.47c3.34.86,6.68,1.83,10.06,2.75,1.68.47,3.38.91,5.07,1.42l5.06,1.53c3.38,1,6.8,2,10.19,3.16,13.64,4.32,27.36,9.37,41.25,14.55s28,10.51,42.42,15.3A424.32,424.32,0,0,0,327.15,489a411.38,411.38,0,0,0,46.2,7.23l11.74.94c3.91.36,7.84.5,11.76.68l5.89.27c2,.1,3.92.19,5.9.19l11.86.17,3,0c.93,0,2,0,2.92,0l5.9-.13,5.9-.13c2-.06,3.93,0,5.89-.21,7.84-.58,15.7-.88,23.47-1.9l5.84-.65c1.94-.24,3.9-.37,5.83-.71l11.58-1.79c3.87-.53,7.68-1.33,11.5-2.08l5.72-1.12c1.9-.39,3.82-.7,5.7-1.19,7.54-1.81,15.09-3.44,22.47-5.6l5.55-1.53c1.85-.51,3.7-1,5.52-1.6l10.92-3.41c3.65-1.08,7.2-2.42,10.77-3.63l5.34-1.86c1.78-.61,3.55-1.23,5.3-1.92,7-2.68,14-5.27,20.81-8.16,27.36-11.25,53-23.94,77-36.65s46.27-25.52,66.89-37.24,39.57-22.43,56.66-31.38,32.28-16.2,45-21.59l4.65-2c1.51-.63,3-1.18,4.44-1.75l8.08-3.12c5.09-1.74,9.4-3.28,12.93-4.4Z" transform="translate(122.98 48.93)"/><path class="cls-10" d="M884.57,305.94l-10.84,3.43c-3.51,1.19-7.78,2.81-12.83,4.64l-8,3.27c-1.42.59-2.91,1.16-4.4,1.81l-4.61,2c-12.66,5.56-27.73,13-44.65,22.18s-35.72,20.11-56.24,32-42.7,24.92-66.64,37.86l-9,4.87-9.23,4.82c-6.17,3.27-12.53,6.36-18.92,9.57-12.86,6.25-26.12,12.4-39.88,18-6.83,2.93-13.86,5.56-20.9,8.27-1.75.7-3.54,1.33-5.33,1.95l-5.37,1.89c-3.6,1.23-7.16,2.59-10.83,3.69l-11,3.47c-1.83.61-3.69,1.11-5.55,1.62l-5.59,1.55c-7.43,2.2-15,3.86-22.63,5.71-1.89.49-3.82.82-5.74,1.21L500.58,481c-3.85.76-7.69,1.59-11.59,2.13L477.31,485c-1.94.35-3.92.49-5.88.74l-5.89.67c-7.85,1.05-15.78,1.38-23.69,2-2,.18-4,.17-5.95.23l-6,.14-6,.15c-1,0-2,.07-3,0l-3,0-11.86-.19c-2,0-4-.1-5.94-.21l-6-.29c-4-.19-7.94-.34-11.88-.72l-11.83-1a415,415,0,0,1-46.62-7.43,427.75,427.75,0,0,1-44.72-12.54c-14.51-4.87-28.62-10.25-42.49-15.47l-10.36-3.88-10.29-3.77-10.23-3.6c-3.39-1.2-6.8-2.3-10.17-3.44s-6.75-2.18-10.11-3.23l-5-1.57c-1.67-.52-3.35-1-5-1.45-3.35-.94-6.66-1.93-10-2.82l-9.91-2.54c-3.27-.89-6.57-1.56-9.82-2.32s-6.48-1.53-9.72-2.15l-9.62-1.9c-1.59-.31-3.17-.64-4.76-.92l-4.74-.79-9.36-1.57c-3.09-.55-6.18-.89-9.23-1.33l-9.06-1.25c-3-.42-6-.68-8.91-1-11.76-1.42-23.08-2.23-33.85-3.1-10.78-.64-21-1.35-30.63-1.59-4.81-.16-9.47-.36-14-.48l-13-.17c-4.17,0-8.17-.13-12-.14L-34,406.1l-9.81.08c-3.08,0-6,0-8.65.12l-13.65.35-11.36.29,11.36-.51,13.64-.61c5.37-.28,11.55-.32,18.47-.5l10.93-.24c3.82,0,7.83,0,12,0H2c4.5.05,9.17.19,14,.28,9.65.1,19.9.67,30.71,1.16,10.8.72,22.16,1.48,34,2.78,3,.32,5.95.56,9,1l9.11,1.18c3.06.42,6.17.74,9.27,1.26l9.41,1.49,4.77.75c1.59.27,3.18.59,4.79.88l9.68,1.82c3.25.6,6.5,1.39,9.78,2.08s6.6,1.38,9.9,2.25l10,2.47c3.34.86,6.68,1.83,10.06,2.75,1.68.47,3.38.91,5.07,1.42l5.06,1.53c3.38,1,6.8,2,10.19,3.16,13.64,4.32,27.36,9.37,41.25,14.55s28,10.51,42.42,15.3a424.32,424.32,0,0,0,44.37,12.31,411.37,411.37,0,0,0,46.2,7.23l11.74.94c3.92.36,7.84.5,11.76.68l5.89.27c2,.1,3.92.19,5.9.19l11.86.17,3,0c.93,0,2,0,2.92,0l5.9-.13,5.9-.13c2-.06,3.93,0,5.89-.21,7.84-.58,15.7-.88,23.47-1.9l5.84-.65c1.94-.24,3.9-.37,5.83-.71l11.58-1.79c3.87-.53,7.68-1.33,11.5-2.08l5.72-1.12c1.9-.39,3.82-.71,5.7-1.19,7.54-1.81,15.09-3.44,22.47-5.6l5.55-1.53c1.85-.51,3.7-1,5.52-1.6l10.92-3.41c3.65-1.08,7.2-2.42,10.77-3.63l5.34-1.86c1.78-.61,3.55-1.23,5.3-1.92,7-2.68,14-5.27,20.81-8.16,27.36-11.25,53-23.94,77-36.65s46.27-25.52,66.89-37.24S781.44,351,798.53,342s32.28-16.2,45-21.59l4.65-2c1.51-.63,3-1.18,4.44-1.75l8.08-3.12c5.09-1.74,9.4-3.28,12.93-4.4Z" transform="translate(122.98 48.93)"/><path class="cls-11" d="M884.57,293.44l-10.84,3.43c-3.51,1.19-7.78,2.81-12.83,4.64l-8,3.27c-1.42.59-2.91,1.16-4.4,1.81l-4.61,2c-12.66,5.56-27.73,13-44.65,22.18s-35.72,20.11-56.24,32-42.7,24.92-66.64,37.86l-9,4.87-9.23,4.82c-6.17,3.27-12.53,6.36-18.92,9.57-12.86,6.25-26.12,12.4-39.88,18-6.83,2.93-13.85,5.56-20.9,8.27-1.75.7-3.54,1.33-5.33,1.95l-5.37,1.89c-3.6,1.23-7.16,2.59-10.83,3.69l-11,3.47c-1.83.61-3.69,1.11-5.55,1.62l-5.59,1.55c-7.43,2.2-15,3.86-22.63,5.71-1.89.49-3.82.82-5.74,1.21l-5.77,1.15c-3.85.76-7.69,1.59-11.59,2.13l-11.68,1.84c-1.94.35-3.92.49-5.88.74l-5.89.67c-7.85,1.05-15.78,1.38-23.69,2-2,.18-4,.17-6,.23l-6,.15-6,.15c-1,0-2,.07-3,0l-3,0-11.86-.19c-2,0-4-.1-5.94-.21l-6-.29c-4-.19-7.94-.34-11.88-.72l-11.83-1a415,415,0,0,1-46.62-7.43A427.76,427.76,0,0,1,279.21,454c-14.51-4.87-28.62-10.25-42.49-15.47l-10.36-3.87-10.29-3.77-10.23-3.6c-3.39-1.2-6.8-2.3-10.17-3.44s-6.75-2.18-10.11-3.23l-5-1.57c-1.67-.52-3.35-1-5-1.45-3.35-.94-6.66-1.93-10-2.82l-9.91-2.54c-3.27-.89-6.57-1.56-9.82-2.32s-6.48-1.53-9.72-2.15l-9.62-1.9c-1.59-.31-3.17-.64-4.76-.92l-4.74-.79-9.36-1.57c-3.09-.55-6.18-.89-9.23-1.33L89.32,400c-3-.42-6-.68-8.91-1-11.76-1.42-23.08-2.23-33.85-3.1-10.78-.64-21-1.35-30.63-1.59-4.81-.16-9.47-.36-14-.48l-13-.17c-4.17,0-8.17-.13-12-.14L-34,393.6l-9.81.08c-3.08,0-6,0-8.65.12l-13.65.35-11.36.29,11.36-.51,13.64-.61c5.37-.28,11.55-.32,18.47-.5l10.93-.24c3.82,0,7.83,0,12,0H2c4.5.05,9.17.19,14,.28,9.65.1,19.9.67,30.71,1.16,10.8.72,22.16,1.48,34,2.78,3,.32,5.95.56,9,1l9.11,1.18c3.06.42,6.17.74,9.27,1.26l9.41,1.49,4.77.75c1.59.27,3.18.59,4.79.88l9.68,1.82c3.26.6,6.5,1.39,9.79,2.08s6.6,1.38,9.9,2.25l10,2.47c3.34.86,6.68,1.83,10.06,2.75,1.68.47,3.38.91,5.07,1.42l5.06,1.53c3.38,1,6.8,2,10.19,3.16,13.64,4.32,27.36,9.37,41.25,14.55s28,10.51,42.42,15.3a424.29,424.29,0,0,0,44.37,12.31,411.35,411.35,0,0,0,46.2,7.23l11.74.94c3.92.36,7.84.5,11.76.68l5.89.27c2,.1,3.92.19,5.9.19l11.86.17,3,0c.93,0,2,0,2.92,0l5.9-.13,5.9-.13c2-.06,3.93,0,5.89-.21,7.84-.58,15.7-.88,23.47-1.9l5.84-.65c1.94-.24,3.9-.37,5.83-.71l11.58-1.79c3.87-.53,7.68-1.33,11.5-2.08l5.72-1.12c1.9-.39,3.82-.71,5.7-1.19,7.54-1.81,15.09-3.44,22.47-5.6l5.55-1.53c1.85-.51,3.7-1,5.52-1.6l10.92-3.41c3.65-1.08,7.2-2.42,10.77-3.63l5.34-1.86c1.78-.61,3.55-1.23,5.3-1.92,7-2.68,14-5.27,20.81-8.16,27.36-11.25,53-23.94,77-36.65s46.27-25.52,66.89-37.24,39.57-22.43,56.66-31.38,32.28-16.2,45-21.59l4.65-2c1.51-.63,3-1.18,4.44-1.75l8.08-3.12c5.09-1.74,9.4-3.28,12.93-4.4Z" transform="translate(122.98 48.93)"/><path class="cls-10" d="M884.7,281l-10.84,3.43c-3.51,1.19-7.78,2.81-12.83,4.64l-8,3.27c-1.42.59-2.91,1.16-4.4,1.81l-4.61,2c-12.66,5.56-27.73,13-44.65,22.18s-35.72,20.11-56.24,32-42.7,24.92-66.64,37.86l-9,4.87-9.23,4.82c-6.17,3.27-12.53,6.36-18.92,9.57-12.86,6.25-26.12,12.4-39.88,18-6.83,2.93-13.85,5.56-20.9,8.27-1.75.7-3.54,1.33-5.33,1.95l-5.37,1.89c-3.6,1.23-7.16,2.59-10.83,3.69l-11,3.47c-1.83.61-3.69,1.11-5.55,1.62L534.85,448c-7.43,2.2-15,3.86-22.63,5.71-1.89.49-3.82.82-5.74,1.21L500.71,456c-3.85.76-7.69,1.58-11.59,2.13L477.44,460c-1.94.35-3.92.49-5.88.74l-5.89.67c-7.85,1.05-15.78,1.38-23.69,2-2,.18-4,.17-6,.23l-6,.15-6,.15c-1,0-2,.07-3,0l-3,0-11.86-.19c-2,0-4-.1-5.94-.21l-6-.29c-4-.19-7.94-.34-11.88-.72l-11.83-1a415,415,0,0,1-46.62-7.43,427.76,427.76,0,0,1-44.72-12.54c-14.51-4.87-28.62-10.25-42.49-15.47l-10.36-3.87-10.29-3.77L206,414.84c-3.39-1.2-6.8-2.3-10.17-3.44s-6.75-2.18-10.11-3.23l-5-1.57c-1.67-.52-3.35-1-5-1.45-3.35-.94-6.66-1.93-10-2.82l-9.91-2.54c-3.27-.89-6.57-1.56-9.82-2.32s-6.48-1.53-9.72-2.15l-9.62-1.9c-1.59-.31-3.17-.64-4.76-.92l-4.74-.79-9.36-1.57c-3.09-.55-6.18-.89-9.23-1.33l-9.06-1.25c-3-.42-6-.68-8.91-1-11.76-1.42-23.08-2.23-33.85-3.1-10.78-.64-21-1.35-30.63-1.59-4.81-.16-9.47-.36-14-.48l-13-.17c-4.17,0-8.17-.13-12-.14l-10.92.09-9.81.08c-3.08,0-6,0-8.65.12l-13.65.35L-77.3,382l11.36-.51,13.64-.61c5.37-.28,11.55-.32,18.47-.5l10.93-.24c3.82,0,7.83,0,12,0h13c4.5.05,9.17.19,14,.28,9.65.1,19.9.67,30.71,1.16,10.8.72,22.16,1.48,34,2.78,3,.32,5.95.56,9,1l9.11,1.18c3.06.42,6.17.74,9.27,1.26l9.41,1.49,4.77.76c1.59.27,3.18.59,4.79.88l9.68,1.82c3.26.6,6.5,1.39,9.79,2.08s6.6,1.38,9.9,2.25l10,2.47c3.34.86,6.68,1.83,10.06,2.75,1.68.47,3.38.91,5.07,1.42l5.06,1.53c3.38,1,6.8,2,10.19,3.16,13.64,4.32,27.36,9.37,41.25,14.55s28,10.51,42.42,15.3a424.29,424.29,0,0,0,44.37,12.31,411.35,411.35,0,0,0,46.2,7.23l11.74.94c3.92.36,7.84.5,11.76.68l5.89.27c2,.1,3.92.19,5.9.19l11.86.17,3,0c.93,0,2,0,2.92,0l5.9-.13,5.9-.13c2-.06,3.93,0,5.89-.21,7.84-.58,15.7-.88,23.47-1.9l5.84-.65c1.94-.24,3.9-.37,5.83-.71l11.58-1.79c3.87-.53,7.68-1.33,11.5-2.08l5.72-1.12c1.9-.39,3.82-.71,5.7-1.19,7.54-1.81,15.09-3.44,22.47-5.6l5.55-1.53c1.85-.51,3.7-1,5.52-1.6l10.92-3.41c3.65-1.08,7.2-2.42,10.77-3.63L572,432.4c1.78-.61,3.55-1.23,5.3-1.92,7-2.68,14-5.27,20.81-8.16,27.36-11.25,53-23.94,77-36.65s46.27-25.52,66.89-37.24S781.57,326,798.66,317s32.28-16.2,45-21.59l4.65-2c1.51-.63,3-1.18,4.44-1.75l8.08-3.12c5.09-1.74,9.4-3.28,12.93-4.4Z" transform="translate(122.98 48.93)"/></g><g id="_3" data-name="3"><path class="cls-12" d="M885,466.25l-11.85-.1c-7.72-.12-19.06-.59-33.44-1.94a447.9,447.9,0,0,1-51.38-8.4,534.85,534.85,0,0,1-64.78-19.11c-11.65-4.2-23.67-8.86-36-13.83s-25.09-10.29-38.2-15.63-26.61-10.72-40.59-15.67a405.21,405.21,0,0,0-43.4-13,239.42,239.42,0,0,0-46.22-6.33l-5.92-.14-1.48,0-.71,0-.75,0-3,.06c-4,.1-7.87.39-11.85.78a228,228,0,0,0-23.73,3.78,408,408,0,0,0-46.92,13.2c-15.5,5.25-30.85,11.18-46.07,17.41-30.47,12.42-60.45,26.11-89.93,39.65s-58.44,27-86.88,39.24S145.5,509.36,118,516.69c-13.76,3.59-27.45,6.3-40.94,6.75-1.69,0-3.35.12-5,0l-4.93-.13-9.73-.26c-3.21,0-6.41-.34-9.56-.53l-9.38-.63a548.68,548.68,0,0,1-66.83-9.8c-19.69-4.08-36.66-8.52-50.53-12.5s-24.62-7.61-31.91-10.17S-122,485.37-122,485.37s3.86,1.45,11.19,3.88,18.15,5.82,32,9.63,30.91,8,50.61,11.79l7.51,1.4,3.84.71c1.29.23,2.6.42,3.92.63l8,1.27c2.71.42,5.44.9,8.24,1.22L11.84,517c2.86.35,5.75.81,8.69,1l8.91.86,4.53.44,2.28.22,2.3.14,9.31.55c3.14.16,6.29.45,9.52.45l9.73.17,4.93.09c1.61.06,3.26-.06,4.9-.08,13.18-.55,26.68-3.33,40.27-7,6.8-1.84,13.64-4,20.5-6.27s13.78-4.77,20.7-7.42q20.79-7.93,42.06-17.17c28.33-12.26,57.24-25.81,86.69-39.45s59.43-27.42,90-40c15.3-6.21,30.73-12.12,46.35-17.37a411.61,411.61,0,0,1,47.39-13.19A231.56,231.56,0,0,1,495,369.28c4-.39,8.14-.68,12.15-.77l3-.06h.75l.79,0,1.51,0,6,.16a243,243,0,0,1,46.87,6.54,384.94,384.94,0,0,1,43.72,13.28c14,5.1,27.51,10.61,40.59,16.06s25.74,10.88,38.06,15.94,24.27,9.81,35.85,14.1c23.18,8.46,44.82,15.21,64.35,19.78a446.56,446.56,0,0,0,51.13,9.07c14.33,1.51,25.63,2.25,33.36,2.49Z" transform="translate(122.98 48.93)"/><path class="cls-11" d="M885,457l-11.85-.1c-7.72-.12-19.06-.59-33.44-1.94a447.66,447.66,0,0,1-51.38-8.4,534.88,534.88,0,0,1-64.78-19.11c-11.65-4.2-23.67-8.86-36-13.83s-25.09-10.29-38.2-15.63-26.61-10.72-40.59-15.68a405.2,405.2,0,0,0-43.4-13A239.39,239.39,0,0,0,519.1,363l-5.92-.14-1.48,0-.71,0-.75,0-3,.06c-4,.1-7.87.39-11.85.78a228.07,228.07,0,0,0-23.73,3.78,408,408,0,0,0-46.92,13.2c-15.5,5.25-30.85,11.18-46.07,17.41-30.47,12.42-60.45,26.11-89.93,39.65s-58.44,27-86.88,39.24S145.5,500.11,118,507.44C104.23,511,90.54,513.74,77,514.2c-1.69,0-3.35.12-5,0l-4.93-.13-9.73-.26c-3.21,0-6.41-.34-9.57-.53l-9.38-.63a548.83,548.83,0,0,1-66.83-9.8c-19.69-4.08-36.66-8.52-50.53-12.5s-24.62-7.61-31.91-10.17S-122,476.12-122,476.12s3.86,1.45,11.19,3.88,18.15,5.82,32,9.63,30.9,8,50.61,11.8l7.51,1.4,3.84.71c1.29.23,2.6.42,3.92.63l8,1.27c2.71.42,5.44.9,8.24,1.22l8.47,1.09c2.86.35,5.75.81,8.69,1l8.92.86,4.53.44,2.28.22,2.3.14,9.31.55c3.14.16,6.29.45,9.52.45l9.73.17,4.93.09c1.61.06,3.26-.06,4.9-.08,13.18-.55,26.68-3.33,40.27-7,6.8-1.84,13.64-4,20.5-6.27s13.78-4.77,20.7-7.42q20.79-7.93,42.06-17.17c28.33-12.25,57.24-25.81,86.69-39.44s59.43-27.42,90-40c15.3-6.21,30.73-12.12,46.35-17.37a411.56,411.56,0,0,1,47.39-13.19A231.56,231.56,0,0,1,495,360c4-.39,8.14-.68,12.15-.77l3-.06h.75l.79,0,1.51,0,6,.16A243,243,0,0,1,566.11,366a384.89,384.89,0,0,1,43.72,13.28c14,5.1,27.51,10.61,40.59,16.06s25.74,10.88,38.06,15.94,24.27,9.81,35.85,14.1c23.18,8.46,44.82,15.21,64.35,19.78a446.53,446.53,0,0,0,51.13,9.07c14.33,1.51,25.63,2.25,33.36,2.49Z" transform="translate(122.98 48.93)"/><path class="cls-13" d="M885.16,447.41l-11.85-.1c-7.72-.12-19.06-.59-33.44-1.94A447.88,447.88,0,0,1,788.5,437a535,535,0,0,1-64.78-19.11c-11.65-4.2-23.67-8.86-36-13.83s-25.09-10.29-38.2-15.63-26.61-10.72-40.59-15.68a405.2,405.2,0,0,0-43.4-13,239.43,239.43,0,0,0-46.22-6.33l-5.92-.14-1.48,0-.71,0-.75,0-3,.06c-4,.1-7.87.39-11.85.78a228.08,228.08,0,0,0-23.73,3.78,407.94,407.94,0,0,0-46.92,13.2c-15.5,5.25-30.85,11.18-46.07,17.41-30.47,12.42-60.45,26.1-89.93,39.65s-58.44,27-86.88,39.24-56.37,23.16-83.89,30.5c-13.76,3.59-27.45,6.3-40.94,6.75-1.69,0-3.35.12-5,0l-4.93-.13-9.73-.26c-3.21,0-6.41-.34-9.56-.53l-9.38-.63a548.83,548.83,0,0,1-66.83-9.8c-19.69-4.08-36.66-8.52-50.53-12.5s-24.62-7.61-31.91-10.17-11.12-4.09-11.12-4.09,3.86,1.45,11.19,3.88,18.15,5.82,32,9.63,30.91,8,50.61,11.8l7.51,1.4,3.84.71c1.29.23,2.6.42,3.92.63l8,1.27c2.71.42,5.44.9,8.24,1.22L12,498.16c2.86.35,5.75.81,8.69,1l8.91.86,4.53.44,2.28.22,2.3.14,9.32.55c3.14.16,6.29.45,9.52.45l9.73.17,4.93.09c1.61.06,3.26-.06,4.9-.08,13.18-.55,26.68-3.33,40.27-7,6.8-1.84,13.64-4,20.5-6.27s13.78-4.77,20.7-7.42q20.79-7.93,42.06-17.17c28.33-12.25,57.24-25.81,86.69-39.44s59.43-27.42,90-40c15.3-6.21,30.73-12.12,46.35-17.37a411.56,411.56,0,0,1,47.39-13.19,231.57,231.57,0,0,1,24.12-3.77c4-.39,8.14-.68,12.15-.77l3-.06h.75l.79,0,1.51,0,6,.16a243,243,0,0,1,46.87,6.54A384.89,384.89,0,0,1,610,369.64c14,5.1,27.51,10.61,40.59,16.06s25.74,10.88,38.06,15.94,24.27,9.81,35.85,14.1c23.18,8.46,44.82,15.21,64.35,19.78A446.48,446.48,0,0,0,840,444.59c14.33,1.51,25.63,2.25,33.36,2.49Z" transform="translate(122.98 48.93)"/><path class="cls-10" d="M886,437.5l-11.85-.1c-7.72-.12-19.06-.59-33.44-1.94a447.79,447.79,0,0,1-51.38-8.4,535,535,0,0,1-64.79-19.11c-11.65-4.2-23.67-8.86-36-13.83s-25.09-10.29-38.2-15.63-26.61-10.72-40.59-15.68a405.1,405.1,0,0,0-43.4-13,239.44,239.44,0,0,0-46.23-6.32l-5.92-.14-1.48,0H512l-.75,0-3,.06c-4,.1-7.87.39-11.85.79A228.89,228.89,0,0,0,472.63,348a410.42,410.42,0,0,0-46.93,13.17c-15.51,5.24-30.86,11.15-46.1,17.36-30.49,12.38-60.5,26-90,39.52s-58.48,27-86.92,39.16-56.36,23.17-83.85,30.61c-13.73,3.67-27.4,6.47-40.87,7.11-1.68.08-3.36.08-5,.12s-3.31-.08-5-.11l-9.73-.26c-1.61,0-3.21-.07-4.8-.14l-4.76-.32-9.38-.64a533.14,533.14,0,0,1-66.85-9.75c-19.69-4.1-36.65-8.59-50.5-12.64s-24.58-7.74-31.85-10.35S-121,456.62-121,456.62s3.85,1.48,11.16,4,18.11,5.94,32,9.81S-47,478.5-27.27,482.32c4.93.9,10,2,15.27,2.76l8,1.29L.1,487l4.16.54,8.47,1.1,4.31.57c1.45.18,2.91.29,4.38.44l8.91.87,4.53.44c1.52.14,3,.2,4.59.3l9.31.56,4.73.28c1.59.06,3.19.07,4.8.1l9.73.18c1.62,0,3.31.08,4.9.07s3.27-.06,4.92-.16c13.18-.74,26.66-3.6,40.23-7.36s27.31-8.53,41.18-13.79q10.39-4,20.92-8.29T201.32,454c28.34-12.25,57.26-25.77,86.73-39.36s59.48-27.33,90-39.83c15.31-6.19,30.75-12.08,46.37-17.31a414.2,414.2,0,0,1,47.4-13.16A232.46,232.46,0,0,1,496,340.53c4-.39,8.14-.68,12.15-.77l3-.06h.75l.79,0,1.51,0,6,.16a242.94,242.94,0,0,1,46.88,6.54,384.79,384.79,0,0,1,43.72,13.28c14,5.1,27.52,10.61,40.6,16.06s25.75,10.88,38.06,15.94,24.27,9.81,35.85,14.1c23.19,8.46,44.82,15.21,64.35,19.78a446.21,446.21,0,0,0,51.13,9.07c14.33,1.51,25.64,2.25,33.36,2.49Z" transform="translate(122.98 48.93)"/><path class="cls-14" d="M884,429.44l-11.84-.1c-7.72-.12-19.06-.59-33.43-1.93A450.08,450.08,0,0,1,787.39,419a538.87,538.87,0,0,1-64.79-19c-11.65-4.19-23.68-8.81-36.06-13.77s-25.1-10.24-38.21-15.57S621.71,360,607.74,355a413.09,413.09,0,0,0-43.37-13,242.25,242.25,0,0,0-46.18-6.53l-5.92-.14-3-.07c-.92,0-2,0-3,.05l-3,.07-2.95.17c-2,.09-3.94.27-5.92.46a225.12,225.12,0,0,0-23.73,3.65,401.44,401.44,0,0,0-46.95,13c-15.51,5.2-30.87,11.08-46.11,17.27-30.5,12.34-60.5,25.94-90,39.42s-58.47,26.92-86.9,39.11S144.43,471.61,117,479c-13.73,3.66-27.39,6.44-40.87,7.06-1.68.07-3.36.08-5,.12s-3.31-.08-5-.12l-9.73-.25c-1.61-.05-3.2-.06-4.8-.14l-4.76-.32-9.38-.63a544.47,544.47,0,0,1-66.85-9.56c-19.7-4-36.67-8.42-50.54-12.39s-24.62-7.58-31.91-10.14S-123,448.57-123,448.57s3.86,1.45,11.19,3.88,18.14,5.82,32,9.6,30.91,7.94,50.62,11.67c4.94.88,10,1.94,15.28,2.7l8,1.26,4.08.64,4.16.53,8.47,1.08,4.31.56c1.45.18,2.91.29,4.38.44l8.91.85,4.53.43c1.52.14,3,.19,4.58.29l9.31.55,4.73.28c1.59.07,3.19.07,4.79.1l9.73.17c1.62,0,3.31.07,4.9.07s3.27-.07,4.91-.15c13.17-.72,26.65-3.57,40.23-7.31s27.31-8.51,41.18-13.76q10.39-4,20.91-8.27t21.14-8.9c28.33-12.23,57.25-25.74,86.72-39.31s59.47-27.29,90-39.74c15.31-6.17,30.76-12,46.39-17.23A405.38,405.38,0,0,1,470,336a229,229,0,0,1,24.14-3.64c2-.19,4-.37,6.08-.46l3.05-.17,3-.06c1,0,2,0,3,0l3,.08,6,.16a245.8,245.8,0,0,1,46.82,6.75A391.88,391.88,0,0,1,608.84,352c14,5.1,27.5,10.6,40.59,16s25.75,10.84,38.07,15.88,24.28,9.76,35.86,14c23.19,8.42,44.83,15.13,64.36,19.68a449.16,449.16,0,0,0,51.11,9c14.33,1.51,25.63,2.25,33.35,2.49Z" transform="translate(122.98 48.93)"/></g><g id="_4" data-name="4"><path class="cls-11" d="M867,532a20.44,20.44,0,0,1-1.5,2.29,50.46,50.46,0,0,1-5.25,6c-5,4.92-13.23,11.25-25,17.05a173.29,173.29,0,0,1-20,8.22,246.69,246.69,0,0,1-24.63,6.66c-2.23.47-4.51.88-6.81,1.33l-3.49.67-3.56.56-7.28,1.13-7.51.91-3.83.46-3.89.34-7.93.68-8.13.46c-2.74.15-5.51.33-8.31.37a615.65,615.65,0,0,1-72.33-2.27c-3.2-.22-6.42-.58-9.65-.91l-9.77-1c-6.55-.7-13.16-1.62-19.85-2.43a330.07,330.07,0,0,1-40.59-7.86,359.15,359.15,0,0,1-80.2-32.14c-26-14-50.83-30.72-75.23-47.93s-48.38-35-72.75-51.34a723.82,723.82,0,0,0-73.9-44.13c-12.42-6.39-24.86-12.19-37.21-17.5s-24.64-10-36.74-14.17c-6-2.13-12.06-4-18-5.91S171.84,348,166,346.45c-11.61-3.23-23-5.85-33.88-8.21-21.89-4.56-42.17-7.68-60.22-9.82S38,325,25,324.36c-3.26-.17-6.34-.39-9.25-.49l-8.16-.3-7-.26-5.85-.11L-16,323l10.73.06,5.85,0,7,.17,8.17.2c2.91.07,6,.25,9.26.38,13.05.52,28.89,1.58,47,3.49s38.47,4.78,60.44,9.25c11,2.29,22.37,4.83,34,8,5.86,1.49,11.74,3.27,17.74,5s12,3.71,18.1,5.81c12.17,4.12,24.54,8.76,37,14s24.94,11.08,37.43,17.45A726.57,726.57,0,0,1,351,430.93c24.47,16.34,48.56,34,72.92,51.22s49,34,74.83,47.92a356.52,356.52,0,0,0,79.53,32.08,343.35,343.35,0,0,0,40.26,7.95c6.67.86,13.25,1.81,19.78,2.56l9.74,1.07c3.23.35,6.43.73,9.62,1a613.76,613.76,0,0,0,72.08,2.76c2.79,0,5.55-.18,8.29-.31l8.1-.4,7.9-.62,3.88-.3,3.82-.41,7.49-.82,7.26-1,3.55-.51,3.48-.62c2.3-.42,4.58-.8,6.8-1.24A246,246,0,0,0,815,564.85a172.77,172.77,0,0,0,20.06-7.94c11.77-5.64,20.08-11.85,25.1-16.69a50.39,50.39,0,0,0,5.31-5.94A20.5,20.5,0,0,0,867,532Z" transform="translate(122.98 48.93)"/><path class="cls-10" d="M864.59,539.19a20.46,20.46,0,0,1-1.5,2.29,50.46,50.46,0,0,1-5.25,6c-5,4.92-13.23,11.25-25,17.05a173.37,173.37,0,0,1-20,8.22,246.77,246.77,0,0,1-24.63,6.66c-2.23.47-4.51.88-6.81,1.33l-3.49.67-3.56.56-7.28,1.13-7.51.91-3.83.46-3.89.34-7.93.68-8.13.46c-2.74.15-5.51.33-8.31.37a615.65,615.65,0,0,1-72.33-2.27c-3.2-.22-6.42-.58-9.65-.91l-9.77-1c-6.55-.7-13.16-1.62-19.85-2.43a330.07,330.07,0,0,1-40.59-7.86,359.15,359.15,0,0,1-80.2-32.14c-26-14-50.83-30.72-75.23-47.93s-48.38-35-72.75-51.34a723.82,723.82,0,0,0-73.9-44.13c-12.42-6.39-24.86-12.19-37.21-17.5s-24.64-10-36.74-14.17c-6-2.13-12.06-4-18-5.91s-11.82-3.57-17.65-5.1c-11.61-3.23-23-5.85-33.88-8.21-21.89-4.56-42.17-7.68-60.22-9.82s-33.86-3.38-46.9-4.06c-3.26-.17-6.34-.39-9.25-.49l-8.16-.3-7-.26-5.85-.11-10.73-.2,10.73.06,5.85,0,7,.17,8.17.2c2.91.07,6,.25,9.26.38,13.05.52,28.89,1.58,47,3.49s38.47,4.78,60.44,9.25c11,2.29,22.37,4.83,34,8,5.86,1.49,11.74,3.27,17.74,5s12,3.71,18.1,5.81c12.17,4.12,24.54,8.76,37,14s24.94,11.08,37.43,17.45a726.59,726.59,0,0,1,74.28,44.12c24.47,16.34,48.56,34,72.92,51.22s49,34,74.83,47.92a356.54,356.54,0,0,0,79.53,32.08,343.35,343.35,0,0,0,40.26,7.95c6.67.86,13.25,1.81,19.78,2.56l9.74,1.07c3.23.35,6.43.73,9.62,1a613.76,613.76,0,0,0,72.08,2.76c2.79,0,5.55-.18,8.29-.31l8.1-.4,7.9-.62,3.88-.3,3.82-.41,7.49-.82,7.26-1,3.55-.51,3.48-.62c2.3-.42,4.58-.8,6.8-1.24A246,246,0,0,0,812.59,572a172.77,172.77,0,0,0,20.06-7.94c11.77-5.64,20.08-11.85,25.1-16.69a50.29,50.29,0,0,0,5.31-5.94A20.49,20.49,0,0,0,864.59,539.19Z" transform="translate(122.98 48.93)"/><path class="cls-12" d="M860.07,545a20.46,20.46,0,0,1-1.5,2.29,50.47,50.47,0,0,1-5.25,6c-5,4.92-13.23,11.25-25,17.05a173.1,173.1,0,0,1-20,8.22,247,247,0,0,1-24.63,6.66c-2.23.47-4.51.88-6.81,1.33l-3.49.67-3.56.56-7.28,1.13-7.51.91-3.83.46-3.89.34-7.93.68-8.13.46c-2.74.15-5.51.33-8.31.37a615.62,615.62,0,0,1-72.33-2.27c-3.2-.22-6.42-.58-9.65-.91l-9.77-1c-6.55-.7-13.16-1.62-19.85-2.43a330.26,330.26,0,0,1-40.59-7.86,359.1,359.1,0,0,1-80.2-32.14c-26-14-50.83-30.72-75.23-47.93s-48.38-35-72.75-51.34a723.7,723.7,0,0,0-73.9-44.13c-12.42-6.39-24.86-12.19-37.21-17.5s-24.64-10-36.74-14.17c-6-2.13-12.06-4-18-5.91s-11.82-3.57-17.65-5.1c-11.61-3.23-23-5.85-33.88-8.21C103.31,346.68,83,343.57,65,341.42s-33.86-3.38-46.9-4.06c-3.26-.17-6.34-.39-9.25-.49l-8.16-.3-7-.26-5.85-.11-10.73-.2,10.73.06,5.85,0,7,.17,8.17.2c2.91.07,6,.25,9.26.38,13.05.52,28.89,1.58,47,3.49s38.47,4.78,60.44,9.25c11,2.29,22.37,4.83,34,8,5.86,1.49,11.74,3.27,17.74,5s12,3.71,18.1,5.81c12.17,4.12,24.54,8.76,37,14s24.94,11.08,37.43,17.45a726.59,726.59,0,0,1,74.28,44.12c24.47,16.34,48.56,34,72.92,51.22s49,34,74.83,47.92a356.47,356.47,0,0,0,79.53,32.08,343.37,343.37,0,0,0,40.26,7.95c6.67.86,13.25,1.81,19.78,2.56l9.74,1.07c3.23.35,6.43.73,9.62,1a613.76,613.76,0,0,0,72.08,2.76c2.79,0,5.55-.18,8.29-.31l8.1-.4,7.9-.62,3.88-.3,3.82-.41,7.49-.82,7.26-1,3.55-.51,3.48-.62c2.3-.42,4.58-.8,6.8-1.24a246,246,0,0,0,24.61-6.33,172.75,172.75,0,0,0,20.06-7.94c11.77-5.64,20.08-11.85,25.1-16.69a50.37,50.37,0,0,0,5.31-5.94A20.48,20.48,0,0,0,860.07,545Z" transform="translate(122.98 48.93)"/><path class="cls-13" d="M857.66,552.19a20.44,20.44,0,0,1-1.5,2.29,50.46,50.46,0,0,1-5.25,6c-5,4.92-13.23,11.25-25,17.05a173.17,173.17,0,0,1-20,8.22,247.06,247.06,0,0,1-24.63,6.66c-2.23.47-4.51.88-6.81,1.33l-3.49.67-3.56.56-7.28,1.13-7.51.91-3.83.46-3.89.34-7.93.68-8.13.46c-2.74.15-5.51.33-8.31.37a615.63,615.63,0,0,1-72.33-2.27c-3.2-.22-6.42-.58-9.65-.91l-9.77-1c-6.55-.7-13.16-1.62-19.85-2.43a330.26,330.26,0,0,1-40.59-7.86,359.1,359.1,0,0,1-80.2-32.14c-26-14-50.83-30.72-75.23-47.93s-48.38-35-72.75-51.34a723.7,723.7,0,0,0-73.9-44.13c-12.42-6.39-24.86-12.19-37.21-17.5s-24.64-10-36.74-14.17c-6-2.13-12.06-4-18-5.91s-11.82-3.57-17.65-5.1c-11.61-3.23-23-5.85-33.88-8.21-21.89-4.56-42.17-7.68-60.22-9.82s-33.86-3.38-46.9-4.06c-3.26-.17-6.34-.39-9.25-.49l-8.16-.3-7-.26-5.85-.11-10.73-.2,10.73.06,5.85,0,7,.17,8.17.2c2.91.07,6,.25,9.26.38,13.05.52,28.89,1.58,47,3.49s38.47,4.78,60.44,9.25c11,2.29,22.37,4.83,34,8,5.86,1.49,11.74,3.27,17.74,5s12,3.71,18.1,5.81c12.17,4.12,24.54,8.76,37,14s24.94,11.08,37.43,17.45a726.47,726.47,0,0,1,74.28,44.12c24.47,16.34,48.56,34,72.92,51.22s49,34,74.83,47.92A356.49,356.49,0,0,0,569,582.34a343.37,343.37,0,0,0,40.26,7.95c6.67.86,13.25,1.81,19.78,2.56l9.74,1.07c3.23.35,6.43.73,9.62,1a613.76,613.76,0,0,0,72.08,2.76c2.79,0,5.55-.18,8.29-.31l8.1-.4,7.9-.62,3.88-.3,3.82-.41,7.49-.82,7.26-1,3.55-.51,3.48-.62c2.3-.42,4.58-.8,6.8-1.24A246,246,0,0,0,805.66,585a172.75,172.75,0,0,0,20.06-7.94c11.77-5.64,20.08-11.85,25.1-16.69a50.29,50.29,0,0,0,5.31-5.94A20.49,20.49,0,0,0,857.66,552.19Z" transform="translate(122.98 48.93)"/><path class="cls-15" d="M855,559.55a20.47,20.47,0,0,1-1.5,2.29,50.46,50.46,0,0,1-5.25,6c-5,4.92-13.23,11.25-25,17.05a173.3,173.3,0,0,1-20,8.22,246.73,246.73,0,0,1-24.63,6.66c-2.23.47-4.51.88-6.81,1.33l-3.49.67-3.56.56-7.28,1.13-7.51.91-3.83.46-3.89.34-7.93.68-8.13.46c-2.74.15-5.51.33-8.31.37a615.65,615.65,0,0,1-72.33-2.27c-3.2-.22-6.42-.59-9.65-.91l-9.77-1c-6.55-.7-13.16-1.62-19.85-2.43a330.07,330.07,0,0,1-40.59-7.86,359.15,359.15,0,0,1-80.2-32.14c-26-14-50.83-30.72-75.23-47.93s-48.38-35-72.75-51.34a723.7,723.7,0,0,0-73.9-44.13c-12.42-6.39-24.86-12.19-37.21-17.5s-24.64-10-36.74-14.17c-6-2.13-12.06-4-18-5.91S159.88,375.52,154,374c-11.61-3.23-23-5.85-33.88-8.21C98.28,361.23,78,358.11,59.95,356s-33.86-3.38-46.9-4.06c-3.26-.17-6.34-.39-9.25-.49l-8.16-.3-7-.26-5.85-.11-10.73-.2,10.73.06,5.85,0,7,.17,8.17.2c2.91.07,6,.25,9.26.38,13.05.52,28.89,1.58,47,3.49s38.47,4.78,60.44,9.25c11,2.29,22.37,4.84,34,8,5.86,1.49,11.74,3.27,17.74,5s12,3.71,18.1,5.81c12.17,4.12,24.54,8.76,37,14s24.94,11.08,37.43,17.45a726.71,726.71,0,0,1,74.28,44.12c24.47,16.34,48.56,34,72.92,51.22s49,34,74.83,47.92a356.52,356.52,0,0,0,79.53,32.08,343.35,343.35,0,0,0,40.26,7.95c6.67.86,13.25,1.81,19.78,2.56l9.74,1.07c3.23.35,6.43.73,9.62,1A613.73,613.73,0,0,0,717.85,605c2.79,0,5.55-.18,8.29-.31l8.1-.4,7.9-.62,3.88-.3,3.82-.41,7.49-.82,7.26-1,3.55-.51,3.48-.62c2.3-.42,4.58-.8,6.8-1.24A246,246,0,0,0,803,592.4a172.77,172.77,0,0,0,20.06-7.94c11.77-5.64,20.08-11.85,25.1-16.69a50.37,50.37,0,0,0,5.31-5.94A20.5,20.5,0,0,0,855,559.55Z" transform="translate(122.98 48.93)"/></g><g id="_5" data-name="5"><path class="cls-16" d="M32.58,382.81C18,401.1,10,419.68,8.77,438c-1.34,20.69,4.56,40.35,17.56,58.42,13.78,19.24,31.19,29.68,51.73,31a96.78,96.78,0,0,0,19.4-.54c1.23,7,2.46,13.9,3.62,20.76a113,113,0,0,1,1.5,23.92c-.6,9.11-3.45,16.56-8.47,22.16-5.44,6-12.21,8.69-20.81,8.13A22.21,22.21,0,0,1,63.36,599a23.36,23.36,0,0,0,9.22-4.36c5.25-4.08,8.2-10,8.68-17.58a27,27,0,0,0-5.53-18.93A23.37,23.37,0,0,0,58,548.69c-7.55-.5-14.39,2.56-20,8.93a32.37,32.37,0,0,0-8.26,19.76C29,588.52,33.19,598,42.3,605.66a48.38,48.38,0,0,0,28.46,11.12,47.08,47.08,0,0,0,17.74-2.13,48,48,0,0,0,13.09-6.72c10-7.18,15.39-16.57,16.13-27.93a164.4,164.4,0,0,0-1.33-30.63L112.32,523a53.6,53.6,0,0,0,25.95-18.64,59.44,59.44,0,0,0,12.11-33c1-15.33-2.65-29.23-10.9-41.32-9-13.25-21.44-20.48-36.83-21.49a39.11,39.11,0,0,0-5.57,0l-4.33-32.37a114,114,0,0,0,28.91-38.36,134,134,0,0,0,12.41-48.57c.66-10.08-.73-22.57-4.11-37.16-4.64-19.79-11.25-29.69-20.23-30.29-3.19-.2-6.68,1.42-11,5.17a80.82,80.82,0,0,0-22.43,33.68c-3.49,9.91-5.8,23.15-6.87,39.38-.53,8.09.75,21.83,3.94,42C54.32,359.05,40.6,372.75,32.58,382.81Zm89.58,88.82c0,10.6-5.23,28.41-12.53,32.75l-7.53-57A24.75,24.75,0,0,1,122.16,471.62ZM84.83,317.38a116.26,116.26,0,0,1,7.73-33.31c5.65-14.73,11-19.19,14.49-20.32a7.45,7.45,0,0,1,2.88-.36c4.56.29,9.09,2.22,8.31,14.27-.66,10.2-4.7,21-12,32.15a90.14,90.14,0,0,1-20.34,22.33A47.56,47.56,0,0,1,84.83,317.38ZM79.1,387.14l3,24.52a54.9,54.9,0,0,0-21.48,16.1c-6.9,8.47-10.75,17.8-11.39,27.74a45.9,45.9,0,0,0,6.85,28A42.14,42.14,0,0,0,66.77,495c7,5.23,15.11,4.83,16.39,2s-3.51-7.28-7.29-13.22a22.06,22.06,0,0,1-3.19-12.16A24.77,24.77,0,0,1,87.43,449l8.12,63.25a54.39,54.39,0,0,1-14.42.84c-13.51-.89-25.56-6.44-35.86-16.54-10.76-10.49-15.58-22-14.71-35.34C32.22,436.06,48.54,411.16,79.1,387.14Z" transform="translate(122.98 48.93)"/><path class="cls-17" d="M39.34,385.11C24.75,403.4,16.73,422,15.53,440.34,14.19,461,20.09,480.69,33.1,498.76c13.78,19.24,31.19,29.68,51.73,31a96.71,96.71,0,0,0,19.4-.54c1.23,7,2.46,13.9,3.62,20.77a113,113,0,0,1,1.5,23.92c-.6,9.11-3.45,16.56-8.47,22.16-5.44,6-12.21,8.69-20.81,8.13a22.21,22.21,0,0,1-9.94-2.92,23.37,23.37,0,0,0,9.22-4.36c5.25-4.08,8.2-10,8.68-17.58a27,27,0,0,0-5.53-18.93A23.37,23.37,0,0,0,64.72,551c-7.55-.5-14.39,2.56-20,8.93a32.37,32.37,0,0,0-8.26,19.76C35.72,590.83,40,600.34,49.07,608a48.38,48.38,0,0,0,28.46,11.12A47.1,47.1,0,0,0,95.26,617a48,48,0,0,0,13.09-6.72c10-7.18,15.39-16.57,16.13-27.93a164.37,164.37,0,0,0-1.33-30.63l-4.07-26.35A53.6,53.6,0,0,0,145,506.68a59.44,59.44,0,0,0,12.11-33c1-15.33-2.65-29.23-10.9-41.32-9-13.25-21.44-20.48-36.83-21.49a39.11,39.11,0,0,0-5.57,0l-4.33-32.37a114,114,0,0,0,28.91-38.36,134,134,0,0,0,12.41-48.57c.66-10.08-.73-22.57-4.11-37.16-4.64-19.79-11.25-29.69-20.23-30.29-3.19-.2-6.68,1.42-11,5.17a80.82,80.82,0,0,0-22.43,33.68c-3.49,9.91-5.8,23.15-6.87,39.38-.53,8.09.75,21.83,3.94,42C61.08,361.36,47.36,375,39.34,385.11Zm89.58,88.82c0,10.6-5.23,28.41-12.53,32.75l-7.53-57A24.75,24.75,0,0,1,128.92,473.93ZM91.59,319.69a116.26,116.26,0,0,1,7.73-33.31c5.65-14.73,11-19.19,14.49-20.32a7.46,7.46,0,0,1,2.88-.36c4.56.29,9.09,2.22,8.31,14.27-.66,10.2-4.7,21-12,32.15a90.14,90.14,0,0,1-20.34,22.33A47.55,47.55,0,0,1,91.59,319.69Zm-5.73,69.75,3,24.52a54.89,54.89,0,0,0-21.48,16.1c-6.9,8.47-10.75,17.8-11.39,27.74a45.9,45.9,0,0,0,6.85,28,42.13,42.13,0,0,0,10.72,11.51c7,5.23,15.11,4.83,16.39,2S86.42,492,82.64,486.1a22.06,22.06,0,0,1-3.19-12.16,24.77,24.77,0,0,1,14.75-22.61l8.12,63.25a54.39,54.39,0,0,1-14.42.84C74.39,514.52,62.33,509,52,498.87c-10.76-10.49-15.58-22-14.71-35.34C39,438.36,55.3,413.46,85.86,389.44Z" transform="translate(122.98 48.93)"/><path class="cls-11" d="M434.28,416.54a13.06,13.06,0,0,0-6.86,3.85,11.55,11.55,0,0,0-2.82,7.47,8.87,8.87,0,0,0,2.91,7.33,12.63,12.63,0,0,0,2.06,1.48l-1.27,2.45a14.84,14.84,0,0,1-1.75,2.6,4.68,4.68,0,0,1-2.64,1.63,3.16,3.16,0,0,1-2.81-.81,2.92,2.92,0,0,1-.8-1.09,3,3,0,0,0,1.3.28,3,3,0,0,0,2.3-1.14,3.53,3.53,0,0,0,.93-2.41,3,3,0,0,0-1.1-2.39,3.14,3.14,0,0,0-2.79-.66,4.33,4.33,0,0,0-3.36,5.34,6.32,6.32,0,0,0,2.07,3.42,6.13,6.13,0,0,0,2,1.19,6.25,6.25,0,0,0,1.89.34,4.74,4.74,0,0,0,3.9-1.62,21.48,21.48,0,0,0,2.29-3.29l1.67-3.06a7,7,0,0,0,4.18.12,7.79,7.79,0,0,0,3.88-2.46,8.39,8.39,0,0,0,2.15-5.16,6.09,6.09,0,0,0-2.12-5.16,5.33,5.33,0,0,0-.58-.44l2.12-3.71a14.9,14.9,0,0,0,6.05-1.69,17.51,17.51,0,0,0,5.15-4.06,17.27,17.27,0,0,0,2.52-4.19c1.09-2.43,1.19-4,.3-4.76a2.08,2.08,0,0,0-1.55-.33,10.56,10.56,0,0,0-5,1.72,20,20,0,0,0-3.84,3.55,28.83,28.83,0,0,0-2.93,4.68A47.68,47.68,0,0,0,434.28,416.54Zm2.25,16.35c-.84,1.1-2.8,2.54-3.91,2.41l3.75-6.52A3.24,3.24,0,0,1,436.54,432.89Zm8.37-19a15.21,15.21,0,0,1,3.45-2.85c1.76-1.08,2.67-1.12,3.12-1a1,1,0,0,1,.33.19c.45.39.77,1-.27,2.14a8.81,8.81,0,0,1-3.8,2.39,11.8,11.8,0,0,1-3.89.71A6.16,6.16,0,0,1,444.91,413.89Zm-6.14,6.79-1.64,2.79a7.17,7.17,0,0,0-3.51,0,6.34,6.34,0,0,0-3.39,2,6,6,0,0,0-1.51,3.46,5.5,5.5,0,0,0,.2,2c.31,1.1,1.19,1.7,1.54,1.51s.21-1,.29-2a2.88,2.88,0,0,1,.63-1.52,3.24,3.24,0,0,1,3.33-1.18L430.54,435a7.12,7.12,0,0,1-1.56-1.06,7.24,7.24,0,0,1-2.41-4.57,5.7,5.7,0,0,1,1.28-4.84C430,422,433.69,420.75,438.77,420.69Z" transform="translate(122.98 48.93)"/><path class="cls-18" d="M368.59,478.26c-4.88,6.12-7.55,12.34-7.95,18.48a29.55,29.55,0,0,0,5.9,19.54c4.61,6.43,10.45,9.92,17.32,10.36a32,32,0,0,0,6.49-.19c.42,2.33.83,4.66,1.22,6.95a37.87,37.87,0,0,1,.51,8,12,12,0,0,1-2.82,7.42,8.09,8.09,0,0,1-7,2.73,7.52,7.52,0,0,1-3.33-1,7.81,7.81,0,0,0,3.08-1.47,7.7,7.7,0,0,0,2.89-5.88,9,9,0,0,0-1.86-6.33,7.8,7.8,0,0,0-5.95-3.15,8,8,0,0,0-6.69,3,11.08,11.08,0,0,0,1.48,16.07,16.14,16.14,0,0,0,9.52,3.71,15.66,15.66,0,0,0,5.93-.71,16.1,16.1,0,0,0,4.37-2.25,12.14,12.14,0,0,0,5.39-9.35,55.06,55.06,0,0,0-.46-10.25l-1.37-8.81a18,18,0,0,0,8.67-6.25,20,20,0,0,0,4-11A21.46,21.46,0,0,0,404.37,494,15.58,15.58,0,0,0,392,486.86a14.17,14.17,0,0,0-1.86,0l-1.46-10.82a38.06,38.06,0,0,0,9.65-12.84A44.7,44.7,0,0,0,402.5,447a44.17,44.17,0,0,0-1.39-12.42c-1.56-6.62-3.77-9.93-6.78-10.12-1.07-.07-2.24.48-3.66,1.73a27,27,0,0,0-7.49,11.28,51.06,51.06,0,0,0-2.29,13.17c-.17,2.71.26,7.3,1.34,14A121.85,121.85,0,0,0,368.59,478.26Zm30,29.67c0,3.55-1.74,9.5-4.18,11l-2.54-19.07A8.28,8.28,0,0,1,398.59,507.93ZM386,456.36a38.85,38.85,0,0,1,2.57-11.15c1.88-4.93,3.67-6.42,4.83-6.8a2.49,2.49,0,0,1,1-.12c1.53.1,3,.74,2.79,4.77a22.51,22.51,0,0,1-4,10.76,30.15,30.15,0,0,1-6.79,7.48A15.68,15.68,0,0,1,386,456.36Zm-1.89,23.33,1,8.2a18.38,18.38,0,0,0-7.18,5.39,16.2,16.2,0,0,0-3.8,9.28,15.41,15.41,0,0,0,2.3,9.37,14.09,14.09,0,0,0,3.59,3.84c2.35,1.74,5.05,1.61,5.48.66s-1.18-2.44-2.44-4.42A7.37,7.37,0,0,1,382,508a8.27,8.27,0,0,1,4.92-7.57l2.74,21.15a18.28,18.28,0,0,1-4.82.28,18.52,18.52,0,0,1-12-5.52c-3.6-3.51-5.22-7.37-4.93-11.82C368.49,496.07,373.94,487.74,384.15,479.69Z" transform="translate(122.98 48.93)"/><path class="cls-11" d="M772.38,409.58a16.2,16.2,0,0,0-3.87,9,14.32,14.32,0,0,0,2.85,9.49,11,11,0,0,0,8.4,5,15.64,15.64,0,0,0,3.15-.09c.2,1.13.4,2.26.59,3.37a18.49,18.49,0,0,1,.24,3.89,5.82,5.82,0,0,1-1.38,3.6,3.94,3.94,0,0,1-3.38,1.32,3.65,3.65,0,0,1-1.62-.47,3.8,3.8,0,0,0,1.5-.71,3.74,3.74,0,0,0,1.41-2.86,4.38,4.38,0,0,0-.9-3.07,3.79,3.79,0,0,0-2.89-1.53,3.89,3.89,0,0,0-3.25,1.45,5.38,5.38,0,0,0,.71,7.8,7.87,7.87,0,0,0,4.62,1.81,7.64,7.64,0,0,0,2.88-.34,7.81,7.81,0,0,0,2.13-1.09,5.89,5.89,0,0,0,2.62-4.54,26.79,26.79,0,0,0-.22-5l-.66-4.28a8.7,8.7,0,0,0,4.22-3,9.65,9.65,0,0,0,2-5.35,10.41,10.41,0,0,0-1.77-6.71,7.57,7.57,0,0,0-6-3.49,6.53,6.53,0,0,0-.9,0l-.7-5.26a18.52,18.52,0,0,0,4.7-6.23,21.74,21.74,0,0,0,2-7.89,21.47,21.47,0,0,0-.67-6c-.75-3.21-1.83-4.82-3.29-4.92a2.59,2.59,0,0,0-1.78.84,13.12,13.12,0,0,0-3.64,5.47,24.75,24.75,0,0,0-1.12,6.4A35.64,35.64,0,0,0,779,403,59.55,59.55,0,0,0,772.38,409.58ZM786.93,424c0,1.72-.85,4.61-2,5.32l-1.22-9.26A4,4,0,0,1,786.93,424ZM780.87,399a18.91,18.91,0,0,1,1.26-5.41c.92-2.39,1.79-3.12,2.35-3.3a1.21,1.21,0,0,1,.47-.06c.74,0,1.48.36,1.35,2.32a10.93,10.93,0,0,1-2,5.22,14.6,14.6,0,0,1-3.3,3.63A7.77,7.77,0,0,1,780.87,399Zm-.93,11.33.48,4a8.94,8.94,0,0,0-3.49,2.62,7.86,7.86,0,0,0-1.85,4.5,7.47,7.47,0,0,0,1.11,4.55,6.84,6.84,0,0,0,1.74,1.87c1.14.85,2.46.79,2.66.32s-.57-1.18-1.19-2.15a3.59,3.59,0,0,1-.52-2,4,4,0,0,1,2.4-3.67l1.32,10.27a8.84,8.84,0,0,1-2.34.14,9,9,0,0,1-5.83-2.69,7.08,7.08,0,0,1-2.39-5.74C772.32,418.23,775,414.19,779.94,410.28Z" transform="translate(122.98 48.93)"/><path class="cls-19" d="M129.23,366.16l2.43-15-1-.16-3.89,24s5.62-1.63,7.51-4.89C136.55,366.14,133.14,364.06,129.23,366.16Zm3.2,3.92c-.94,1.67-3.25,2.73-4.34,3.15l.93-5.74C131.64,365.92,134,367.32,132.42,370.07Z" transform="translate(122.98 48.93)"/><path class="cls-11" d="M141.74,395.54l-.94-15.19-1,.06,1.51,24.3s5.12-2.83,6.24-6.43C148.89,393.9,145.1,392.64,141.74,395.54Zm4,3.12c-.55,1.84-2.56,3.38-3.54,4l-.36-5.8C144,394.77,146.63,395.62,145.72,398.65Z" transform="translate(122.98 48.93)"/><path class="cls-10" d="M311.33,517.13l11.86-9.53-.65-.81-19,15.24s5.26,2.55,8.85,1.39C316.78,522,315.63,518.2,311.33,517.13Zm-.25,5c-1.82.61-4.24-.15-5.33-.56l4.53-3.64C313.28,518.57,314.08,521.17,311.08,522.18Z" transform="translate(122.98 48.93)"/><path class="cls-18" d="M653.72,477.92l17-13.63-.93-1.15-27.16,21.81s7.53,3.64,12.67,2C661.53,484.92,659.89,479.45,653.72,477.92Zm-.36,7.23c-2.6.88-6.07-.21-7.63-.81l6.49-5.21C656.52,480,657.66,483.7,653.37,485.15Z" transform="translate(122.98 48.93)"/><g class="cls-20"><path class="cls-16" d="M482.16,365.2l-.69.08,1.63,14.31a4,4,0,0,0-3.17,0c-1.73.68-2.78,2.11-2.35,3.2s2.18,1.42,3.9.74c1.55-.61,2.55-1.83,2.43-2.87Z" transform="translate(122.98 48.93)"/><path class="cls-16" d="M471.17,369.24l-.68.08,1.63,14.31a4,4,0,0,0-3.17,0c-1.73.68-2.78,2.11-2.35,3.2s2.18,1.42,3.9.74c1.55-.61,2.55-1.83,2.44-2.87Z" transform="translate(122.98 48.93)"/><polygon class="cls-16" points="605.52 417.5 593.85 421.61 593.42 417.81 605.09 413.7 605.52 417.5"/></g><path class="cls-16" d="M160.38,329.57l-.69.08L161.33,344a4,4,0,0,0-3.17,0c-1.73.68-2.78,2.11-2.35,3.2s2.18,1.42,3.9.74c1.55-.61,2.55-1.83,2.43-2.87Z" transform="translate(122.98 48.93)"/><path class="cls-16" d="M149.39,333.6l-.68.08L150.34,348a4,4,0,0,0-3.17,0c-1.73.68-2.78,2.11-2.35,3.2s2.18,1.42,3.9.74c1.55-.61,2.55-1.83,2.44-2.87Z" transform="translate(122.98 48.93)"/><polygon class="cls-16" points="283.75 381.86 272.07 385.98 271.64 382.18 283.31 378.07 283.75 381.86"/><g class="cls-20"><path class="cls-18" d="M165.87,501.83l-.69.08,1.63,14.31a4,4,0,0,0-3.16,0c-1.73.68-2.78,2.12-2.35,3.2s2.18,1.42,3.9.74c1.55-.61,2.55-1.83,2.43-2.87Z" transform="translate(122.98 48.93)"/><path class="cls-18" d="M154.89,505.87l-.68.08,1.63,14.31a4,4,0,0,0-3.17,0c-1.73.68-2.78,2.12-2.35,3.2s2.18,1.42,3.9.74c1.55-.61,2.55-1.83,2.44-2.87Z" transform="translate(122.98 48.93)"/><polygon class="cls-18" points="289.24 554.13 277.56 558.24 277.13 554.45 288.8 550.33 289.24 554.13"/></g><g class="cls-20"><path class="cls-18" d="M768.06,572.28l-.46-.05-1.09,9.54a2.62,2.62,0,0,0-2.06-.45c-1.22.18-2.12,1-2,1.72s1.2,1.25,2.42,1.07,1.93-.81,2-1.5Z" transform="translate(122.98 48.93)"/><path class="cls-18" d="M760.32,573.25l-.46-.05-1.09,9.54a2.63,2.63,0,0,0-2.06-.45c-1.22.18-2.12,1-2,1.73s1.2,1.25,2.43,1.07,1.93-.81,2-1.5Z" transform="translate(122.98 48.93)"/><polygon class="cls-18" points="890.79 623.45 882.59 624.37 882.88 621.84 891.08 620.92 890.79 623.45"/></g><g class="cls-20"><path class="cls-21" d="M510,531.69l-.34-.16-3.26,7.16a2.14,2.14,0,0,0-1.49-.87c-1-.17-1.9.21-2,.84s.62,1.28,1.62,1.44a1.79,1.79,0,0,0,1.95-.66Z" transform="translate(122.98 48.93)"/><path class="cls-21" d="M503.69,530.49l-.34-.16-3.26,7.16a2.15,2.15,0,0,0-1.5-.87c-1-.17-1.9.21-2,.84s.62,1.28,1.62,1.44a1.79,1.79,0,0,0,1.95-.66Z" transform="translate(122.98 48.93)"/><polygon class="cls-21" points="632.19 582.31 625.56 580.95 626.43 579.05 633.05 580.41 632.19 582.31"/></g><g class="cls-20"><path class="cls-21" d="M597.54,562l-.36-.1L595,569.52a2.15,2.15,0,0,0-1.61-.63c-1,0-1.84.49-1.85,1.13s.81,1.17,1.82,1.18a1.79,1.79,0,0,0,1.82-.95Z" transform="translate(122.98 48.93)"/><path class="cls-21" d="M591.15,561.81l-.36-.1-2.13,7.58a2.15,2.15,0,0,0-1.61-.63c-1,0-1.84.5-1.85,1.13S586,571,587,571a1.79,1.79,0,0,0,1.82-.95Z" transform="translate(122.98 48.93)"/><polygon class="cls-21" points="720.02 612.75 713.27 612.42 713.83 610.41 720.59 610.74 720.02 612.75"/></g><path class="cls-22" d="M428.58,370.44l-.7.13,2.69,14.51a4.05,4.05,0,0,0-3.23.27c-1.72.82-2.69,2.36-2.17,3.44s2.33,1.29,4,.48c1.54-.74,2.48-2.06,2.28-3.11Z" transform="translate(122.98 48.93)"/><path class="cls-22" d="M417.76,375.25l-.69.13,2.69,14.51a4,4,0,0,0-3.23.27c-1.72.82-2.69,2.36-2.17,3.44s2.33,1.29,4,.47c1.54-.74,2.48-2.06,2.28-3.1Z" transform="translate(122.98 48.93)"/><polygon class="cls-22" points="563.17 417.94 540.68 427.73 539.96 423.88 562.46 414.09 563.17 417.94"/><path class="cls-22" d="M439.55,365.59l-.7.13,2.69,14.51a4,4,0,0,0-3.23.28c-1.72.82-2.69,2.36-2.17,3.44s2.33,1.29,4,.48c1.54-.74,2.48-2.06,2.28-3.1Z" transform="translate(122.98 48.93)"/><g class="cls-20"><path class="cls-16" d="M594.5,422.73l-1.68.31,6.52,35.13c-2-.88-5-.7-7.83.67-4.16,2-6.51,5.71-5.26,8.34s5.63,3.13,9.79,1.15c3.74-1.79,6-5,5.52-7.52C601.39,459.81,594.5,422.73,594.5,422.73Z" transform="translate(122.98 48.93)"/><path class="cls-16" d="M568.29,434.39l-1.68.31,6.52,35.13c-2-.88-5-.71-7.83.66-4.16,2-6.51,5.72-5.26,8.34s5.63,3.13,9.79,1.15c3.74-1.78,6-5,5.53-7.51Z" transform="translate(122.98 48.93)"/><polygon class="cls-16" points="745.58 468.2 691.12 491.9 689.39 482.57 743.85 458.88 745.58 468.2"/><path class="cls-16" d="M621.06,411l-1.69.31,6.52,35.13c-2-.88-5-.71-7.82.67-4.16,2-6.51,5.72-5.26,8.33s5.63,3.13,9.79,1.15c3.74-1.79,6-5,5.53-7.51Z" transform="translate(122.98 48.93)"/></g><g class="cls-20"><path class="cls-16" d="M310.45,391.73l-.87.1L311.7,410a5,5,0,0,0-4,.07c-2.19.87-3.52,2.7-3,4.08s2.77,1.79,5,.92c2-.78,3.23-2.34,3.08-3.65Z" transform="translate(122.98 48.93)"/><path class="cls-16" d="M296.66,396.78l-.87.1,2.13,18.17a5,5,0,0,0-4,.07c-2.19.87-3.52,2.7-3,4.08s2.77,1.79,5,.92c2-.78,3.23-2.34,3.08-3.65Z" transform="translate(122.98 48.93)"/><polygon class="cls-16" points="447.89 439.86 419.27 450.09 418.7 445.27 447.33 435.04 447.89 439.86"/><path class="cls-16" d="M324.41,386.65l-.87.1,2.12,18.17a5,5,0,0,0-4,.07c-2.19.87-3.52,2.7-3,4.08s2.77,1.79,5,.92c2-.78,3.23-2.34,3.08-3.65Z" transform="translate(122.98 48.93)"/></g><path class="cls-16" d="M748.93,332.32l-1.52.53,11,31.69c-2-.54-4.7,0-7.17,1.72-3.58,2.43-5.24,6.22-3.71,8.47s5.66,2.12,9.25-.31c3.22-2.18,4.87-5.47,4.07-7.75Z" transform="translate(122.98 48.93)"/><path class="cls-16" d="M726.24,346.83l-1.52.53,11,31.69c-2-.54-4.7,0-7.17,1.72-3.58,2.43-5.24,6.22-3.71,8.48s5.67,2.11,9.25-.31c3.22-2.18,4.87-5.46,4.07-7.75Z" transform="translate(122.98 48.93)"/><polygon class="cls-16" points="897.49 374.09 850.28 403.74 847.37 395.33 894.58 365.69 897.49 374.09"/><path class="cls-16" d="M771.93,317.7l-1.52.53,11,31.69c-2-.54-4.7,0-7.17,1.72-3.58,2.42-5.24,6.22-3.71,8.47s5.66,2.12,9.25-.31c3.22-2.18,4.87-5.46,4.07-7.75Z" transform="translate(122.98 48.93)"/><path class="cls-21" d="M550.41,556.06l-1.23-.72L534.11,581.1a8.18,8.18,0,0,0-5.31-3.85c-3.71-1-7.23.05-7.87,2.39s1.85,5.05,5.56,6.07c3.33.91,6.51.13,7.59-1.73Z" transform="translate(122.98 48.93)"/><path class="cls-21" d="M527.48,549.12l-1.23-.72-15.06,25.75a8.17,8.17,0,0,0-5.31-3.85c-3.71-1-7.23.06-7.87,2.39s1.85,5.05,5.56,6.07c3.33.92,6.51.13,7.6-1.73Z" transform="translate(122.98 48.93)"/><polygon class="cls-21" points="693.02 618.14 645.69 603.38 649.68 596.55 697.02 611.31 693.02 618.14"/><path class="cls-21" d="M573.59,563.15l-1.23-.72-15.06,25.75a8.17,8.17,0,0,0-5.31-3.85c-3.71-1-7.23.05-7.87,2.39s1.85,5.05,5.56,6.07c3.34.91,6.51.13,7.59-1.73Z" transform="translate(122.98 48.93)"/><path class="cls-22" d="M206.32,335.67l-1.21-.53-11,25.2a7.53,7.53,0,0,0-5.27-3c-3.5-.53-6.62.82-7,3s2.23,4.43,5.74,5c3.15.48,6-.58,6.77-2.4Z" transform="translate(122.98 48.93)"/><path class="cls-22" d="M184.59,331.77l-1.21-.53-11,25.2a7.53,7.53,0,0,0-5.27-3c-3.5-.53-6.61.83-7,3s2.24,4.43,5.74,5c3.15.48,6-.58,6.77-2.4Z" transform="translate(122.98 48.93)"/><polygon class="cls-22" points="348.69 394.53 303.77 386.1 306.69 379.41 351.62 387.85 348.69 394.53"/><path class="cls-22" d="M228.3,339.67l-1.21-.53-11,25.2a7.54,7.54,0,0,0-5.27-3c-3.5-.53-6.62.82-7,3s2.23,4.43,5.74,5c3.15.48,6-.58,6.77-2.4Z" transform="translate(122.98 48.93)"/><g class="cls-20"><path class="cls-18" d="M263.83,380.55l-1-.66-13.87,21a6.89,6.89,0,0,0-4.3-3.49c-3.08-1-6.1-.28-6.74,1.66s1.32,4.34,4.4,5.37c2.77.92,5.48.4,6.48-1.12Z" transform="translate(122.98 48.93)"/><path class="cls-18" d="M244.82,373.66l-1-.66-13.87,21a6.89,6.89,0,0,0-4.3-3.49c-3.08-1-6.1-.29-6.74,1.65s1.33,4.34,4.41,5.37c2.77.93,5.48.41,6.48-1.11Z" transform="translate(122.98 48.93)"/><polygon class="cls-18" points="402.75 441.46 363.54 426.87 367.21 421.29 406.44 435.89 402.75 441.46"/><path class="cls-18" d="M283,387.59l-1-.66-13.87,21a6.9,6.9,0,0,0-4.3-3.48c-3.07-1-6.09-.29-6.74,1.66s1.33,4.34,4.41,5.37c2.77.92,5.48.4,6.48-1.12Z" transform="translate(122.98 48.93)"/></g><path class="cls-18" d="M197.64,478.79l-.82,0,.52,17.19a4.71,4.71,0,0,0-3.77-.26c-2.12.64-3.52,2.24-3.11,3.58s2.44,1.9,4.57,1.27c1.91-.58,3.22-1.93,3.18-3.17C198.18,496.94,197.64,478.79,197.64,478.79Z" transform="translate(122.98 48.93)"/><path class="cls-18" d="M184.31,482.41l-.82,0,.51,17.19a4.7,4.7,0,0,0-3.77-.26c-2.12.63-3.52,2.24-3.12,3.57s2.45,1.9,4.57,1.27c1.91-.57,3.22-1.93,3.18-3.16C184.86,500.56,184.31,482.41,184.31,482.41Z" transform="translate(122.98 48.93)"/><polygon class="cls-18" points="334.23 528.15 306.59 535.41 306.45 530.85 334.1 523.59 334.23 528.15"/><path class="cls-18" d="M211.13,475.17l-.82,0,.51,17.19a4.71,4.71,0,0,0-3.77-.25c-2.12.63-3.52,2.24-3.11,3.58s2.45,1.9,4.57,1.27c1.91-.58,3.22-1.93,3.18-3.17C211.67,493.32,211.13,475.17,211.13,475.17Z" transform="translate(122.98 48.93)"/><g class="cls-20"><path class="cls-17" d="M212.46,408.91h-1v21.6a5.92,5.92,0,0,0-4.72-.47c-2.69.72-4.5,2.68-4,4.37s3,2.48,5.69,1.76c2.42-.65,4.11-2.3,4.11-3.86C212.45,431.7,212.46,408.91,212.46,408.91Z" transform="translate(122.98 48.93)"/><path class="cls-17" d="M195.4,413h-1v21.6a5.91,5.91,0,0,0-4.72-.47c-2.69.72-4.5,2.68-4,4.37s3,2.48,5.69,1.76c2.42-.65,4.11-2.3,4.11-3.86C195.4,435.84,195.4,413,195.4,413Z" transform="translate(122.98 48.93)"/><polygon class="cls-17" points="317.35 461.31 317.35 463.12 335.44 458.98 335.44 457.17 317.35 461.31"/><polygon class="cls-17" points="317.35 467.04 335.44 462.9 335.44 461.09 317.35 465.23 317.35 467.04"/></g><g class="cls-20"><path class="cls-18" d="M494.45,299.19l-1.91.08,1.71,39.81c-2-1.28-5.36-1.55-8.74-.49-4.9,1.54-8.08,5.29-7.11,8.38s5.73,4.34,10.63,2.8c4.41-1.39,7.4-4.56,7.28-7.43C496.25,341.21,494.45,299.19,494.45,299.19Z" transform="translate(122.98 48.93)"/><path class="cls-18" d="M463.35,308.18l-1.91.08,1.71,39.81c-2-1.28-5.36-1.55-8.74-.49-4.9,1.54-8.08,5.29-7.11,8.38s5.73,4.34,10.63,2.8c4.41-1.39,7.4-4.56,7.28-7.43Z" transform="translate(122.98 48.93)"/><polygon class="cls-18" points="584.36 355.96 584.51 359.3 617.52 350.24 617.38 346.89 584.36 355.96"/><polygon class="cls-18" points="584.82 366.52 617.83 357.45 617.68 354.11 584.67 363.19 584.82 366.52"/></g><path class="cls-16" d="M479.82,530l-1.24-.27-5.6,26a7.28,7.28,0,0,0-5.56-1.79c-3.42.17-6.1,2.05-6,4.21s3,3.76,6.38,3.59c3.08-.15,5.54-1.7,5.95-3.57Z" transform="translate(122.98 48.93)"/><path class="cls-16" d="M458.24,530.57,457,530.3l-5.6,26a7.27,7.27,0,0,0-5.56-1.79c-3.42.17-6.11,2.05-6,4.21s3,3.76,6.38,3.59c3.08-.15,5.54-1.7,5.95-3.57Z" transform="translate(122.98 48.93)"/><polygon class="cls-16" points="580.15 578.43 579.68 580.61 602.5 580.32 602.97 578.14 580.15 578.43"/><polygon class="cls-16" points="578.67 585.32 601.49 585.03 601.96 582.85 579.13 583.14 578.67 585.32"/><g class="cls-20"><path class="cls-16" d="M685.21,549l-1.93-.66L669.6,588.71c-1.55-2.07-4.75-3.62-8.53-3.86-5.48-.36-10.11,2.15-10.33,5.61s4,6.54,9.52,6.9c4.93.32,9.14-1.69,10.13-4.6Z" transform="translate(122.98 48.93)"/><path class="cls-16" d="M650.72,545.95l-1.94-.66-13.67,40.37c-1.54-2.07-4.75-3.62-8.53-3.87-5.48-.36-10.11,2.16-10.33,5.61s4,6.54,9.52,6.9c4.93.32,9.15-1.69,10.13-4.6Z" transform="translate(122.98 48.93)"/><polygon class="cls-16" points="772.18 592.98 771.04 596.36 807.47 600.07 808.61 596.68 772.18 592.98"/><polygon class="cls-16" points="768.56 603.69 804.99 607.39 806.13 604 769.7 600.3 768.56 603.69"/></g><path class="cls-21" d="M743.74,587.48l-1.13-.17L739,611a6.56,6.56,0,0,0-5.09-1.3c-3.06.34-5.38,2.18-5.16,4.11s2.87,3.22,5.94,2.88c2.76-.3,4.89-1.83,5.15-3.54Z" transform="translate(122.98 48.93)"/><path class="cls-21" d="M724.37,589.17l-1.13-.17-3.61,23.66a6.56,6.56,0,0,0-5.1-1.3c-3.06.34-5.38,2.18-5.16,4.11s2.87,3.22,5.94,2.88c2.76-.3,4.89-1.83,5.15-3.54Z" transform="translate(122.98 48.93)"/><polygon class="cls-21" points="846.33 637.2 846.02 639.18 866.53 637.67 866.83 635.68 846.33 637.2"/><polygon class="cls-21" points="845.37 643.47 865.87 641.96 866.18 639.97 845.67 641.49 845.37 643.47"/><g class="cls-20"><path class="cls-21" d="M522.22,476.34l-1,.18,3.72,21.27a5.92,5.92,0,0,0-4.73.35c-2.52,1.17-4,3.41-3.23,5s3.38,1.93,5.91.75c2.27-1.05,3.66-3,3.39-4.51Z" transform="translate(122.98 48.93)"/><path class="cls-21" d="M506.14,483.36l-1,.18,3.72,21.27a5.92,5.92,0,0,0-4.73.35c-2.52,1.17-4,3.41-3.23,5s3.38,1.93,5.91.75c2.27-1.05,3.66-3,3.39-4.51Z" transform="translate(122.98 48.93)"/><polygon class="cls-21" points="627.99 531.81 628.3 533.6 645.4 526.4 645.09 524.62 627.99 531.81"/><polygon class="cls-21" points="628.98 537.46 646.08 530.26 645.76 528.48 628.66 535.67 628.98 537.46"/></g><g class="cls-20"><path class="cls-22" d="M554.59,327.34,552,319.63v53.6c-2.68-1.84-7.12-2.4-11.72-1.16-6.67,1.79-11.17,6.65-10,10.85s7.45,6.16,14.12,4.38c6-1.61,10.21-5.71,10.21-9.57C554.58,376.2,554.59,327.34,554.59,327.34Z" transform="translate(122.98 48.93)"/><path class="cls-22" d="M552,330.07V319.64s1.36-.26,2.6,2c7.19,13.14,17,3.54,20.58,18,.25,1-.74,1.2-1.09.38C569.25,328.78,561.09,339.34,552,330.07Z" transform="translate(122.98 48.93)"/><path class="cls-22" d="M552,340.35V329.92s1.36-.26,2.6,2c7.19,13.14,17,3.54,20.58,18,.25,1-.74,1.21-1.09.39C569.25,339.06,561.09,349.62,552,340.35Z" transform="translate(122.98 48.93)"/></g><g class="cls-20"><path class="cls-17" d="M583.17,365.77l-1.22-6.18-5.23,41.17c-1.88-1.68-5.23-2.53-8.89-2-5.3.72-9.23,4-8.77,7.35s5.12,5.46,10.42,4.74c4.77-.65,8.4-3.39,8.78-6.36Z" transform="translate(122.98 48.93)"/><path class="cls-17" d="M580.93,367.61l1-8s1.07-.07,1.8,1.79c4.24,10.8,12.68,4.38,14.06,15.8.09.79-.68.86-.88.19C594.3,368.3,587,375.62,580.93,367.61Z" transform="translate(122.98 48.93)"/><path class="cls-17" d="M579.93,375.51l1-8s1.07-.07,1.8,1.79c4.24,10.79,12.68,4.37,14.06,15.8.09.79-.68.86-.88.19C593.29,376.2,586,383.51,579.93,375.51Z" transform="translate(122.98 48.93)"/></g><g class="cls-20"><path class="cls-22" d="M701.53,379.28l-4-7.55,9,55.48c-3.08-1.45-7.77-1.28-12.33.77-6.61,3-10.44,8.75-8.57,12.92s8.74,5.13,15.35,2.16c5.94-2.68,9.61-7.63,9-11.62C709.74,429.85,701.53,379.28,701.53,379.28Z" transform="translate(122.98 48.93)"/><path class="cls-22" d="M699.32,382.53l-1.75-10.79s1.37-.5,3,1.64c9.66,12.39,18.15.81,24.33,15.13.43,1-.56,1.36-1.06.58C716.95,378.31,710.28,390.61,699.32,382.53Z" transform="translate(122.98 48.93)"/><path class="cls-22" d="M701.06,393.17l-1.76-10.79s1.37-.5,3,1.63c9.65,12.39,18.15.81,24.33,15.13.42,1-.56,1.37-1.06.59C718.68,388.95,712,401.25,701.06,393.17Z" transform="translate(122.98 48.93)"/></g><path class="cls-18" d="M348.91,360.35l-3.21-5.64,8.28,42c-2.38-1-5.95-.78-9.36.9-5,2.43-7.73,6.93-6.2,10.05s6.79,3.68,11.74,1.25c4.45-2.19,7.12-6,6.52-9.07Z" transform="translate(122.98 48.93)"/><path class="cls-18" d="M347.31,362.89l-1.61-8.17s1-.42,2.34,1.17c7.66,9.18,13.83.16,18.9,10.89.35.74-.39,1.06-.79.47C360.62,359.22,355.85,368.75,347.31,362.89Z" transform="translate(122.98 48.93)"/><path class="cls-18" d="M348.9,370.94l-1.61-8.17s1-.42,2.35,1.17c7.66,9.18,13.83.16,18.9,10.89.35.74-.39,1.06-.8.47C362.2,367.27,357.44,376.8,348.9,370.94Z" transform="translate(122.98 48.93)"/><path class="cls-16" d="M399.15,292.17l-6.18-13,11.36,94.54c-5.12-2.69-13.06-2.72-20.92.43-11.4,4.57-18.3,14.09-15.43,21.27s14.45,9.29,25.84,4.72c10.24-4.11,16.8-12.22,16-19Z" transform="translate(122.98 48.93)"/><path class="cls-16" d="M395.18,297.53,393,279.14s2.35-.75,5,3c15.48,21.65,30.67,2.66,40.12,27.31.65,1.7-1,2.28-1.83.92C425.32,291.61,413.16,312,395.18,297.53Z" transform="translate(122.98 48.93)"/><path class="cls-16" d="M397.36,315.66l-2.21-18.39s2.35-.75,5,3c15.46,21.65,30.66,2.65,40.11,27.31.65,1.7-1.05,2.28-1.84.92C427.48,309.74,415.34,330.09,397.36,315.66Z" transform="translate(122.98 48.93)"/><g class="cls-20"><path class="cls-16" d="M447.84,292.87l-1.56-3.3,2.88,23.94a6.61,6.61,0,0,0-5.3.11c-2.89,1.16-4.63,3.57-3.91,5.38s3.66,2.35,6.54,1.2c2.59-1,4.25-3.1,4-4.82Z" transform="translate(122.98 48.93)"/><path class="cls-16" d="M446.84,294.23l-.56-4.66s.59-.19,1.27.76c3.92,5.48,7.77.67,10.16,6.92.17.43-.26.58-.46.23C454.47,292.73,451.39,297.88,446.84,294.23Z" transform="translate(122.98 48.93)"/><path class="cls-16" d="M447.39,298.82l-.56-4.66s.59-.19,1.27.75c3.92,5.48,7.76.67,10.16,6.92.17.43-.27.58-.46.23C455,297.32,451.94,302.47,447.39,298.82Z" transform="translate(122.98 48.93)"/></g><g class="cls-20"><path class="cls-16" d="M148.51,359.38l-1-2.18,1.9,15.78a4.35,4.35,0,0,0-3.49.07c-1.9.76-3.05,2.35-2.57,3.55s2.41,1.55,4.31.79c1.71-.69,2.8-2,2.67-3.18Z" transform="translate(122.98 48.93)"/><path class="cls-16" d="M147.85,360.28l-.37-3.07s.39-.12.83.5c2.58,3.61,5.12.44,6.7,4.56.11.28-.17.38-.31.15C152.88,359.29,150.85,362.69,147.85,360.28Z" transform="translate(122.98 48.93)"/><path class="cls-16" d="M148.21,363.3l-.37-3.07s.39-.12.84.5c2.58,3.61,5.12.44,6.69,4.56.11.28-.17.38-.31.15C153.24,362.31,151.21,365.71,148.21,363.3Z" transform="translate(122.98 48.93)"/></g><g class="cls-20"><path class="cls-22" d="M117.86,375.82l-1-2.18,1.9,15.78a4.35,4.35,0,0,0-3.49.07c-1.9.76-3.05,2.35-2.57,3.55s2.41,1.55,4.31.79c1.71-.69,2.8-2,2.67-3.18Z" transform="translate(122.98 48.93)"/><path class="cls-22" d="M117.2,376.72l-.37-3.07s.39-.12.83.5c2.58,3.61,5.12.44,6.7,4.56.11.28-.17.38-.31.15C122.23,375.73,120.2,379.13,117.2,376.72Z" transform="translate(122.98 48.93)"/><path class="cls-22" d="M117.56,379.74l-.37-3.07s.39-.12.84.5c2.58,3.61,5.12.44,6.69,4.56.11.28-.17.38-.31.15C122.59,378.75,120.56,382.15,117.56,379.74Z" transform="translate(122.98 48.93)"/></g><g class="cls-20"><path class="cls-16" d="M184.74,521.27l-1-2.18,1.9,15.78a4.36,4.36,0,0,0-3.49.07c-1.9.76-3.05,2.35-2.57,3.55s2.41,1.55,4.31.79c1.71-.69,2.8-2,2.67-3.18Z" transform="translate(122.98 48.93)"/><path class="cls-16" d="M184.08,522.17l-.37-3.07s.39-.12.83.5c2.58,3.61,5.12.44,6.7,4.56.11.28-.17.38-.31.15C189.11,521.18,187.08,524.58,184.08,522.17Z" transform="translate(122.98 48.93)"/><path class="cls-16" d="M184.44,525.19l-.37-3.07s.39-.12.84.5c2.58,3.61,5.12.44,6.69,4.56.11.29-.17.38-.31.15C189.47,524.21,187.44,527.6,184.44,525.19Z" transform="translate(122.98 48.93)"/></g><g class="cls-20"><path class="cls-16" d="M215.19,439.14l-1-2.18,1.9,15.78a4.36,4.36,0,0,0-3.49.07c-1.9.76-3.05,2.35-2.57,3.55s2.41,1.55,4.31.79c1.71-.69,2.8-2,2.67-3.18Z" transform="translate(122.98 48.93)"/><path class="cls-16" d="M214.52,440l-.37-3.07s.39-.12.83.5c2.58,3.61,5.12.44,6.7,4.56.11.28-.17.38-.31.15C219.55,439,217.52,442.44,214.52,440Z" transform="translate(122.98 48.93)"/><path class="cls-16" d="M214.89,443.06l-.37-3.07s.39-.12.84.5c2.58,3.61,5.12.44,6.69,4.56.11.29-.17.38-.31.15C219.92,442.07,217.89,445.46,214.89,443.06Z" transform="translate(122.98 48.93)"/></g><g class="cls-20"><path class="cls-16" d="M194.61,381.39l-1-2.18,1.9,15.78a4.36,4.36,0,0,0-3.49.07c-1.9.76-3.05,2.35-2.57,3.55s2.41,1.55,4.31.79c1.71-.69,2.8-2,2.67-3.18Z" transform="translate(122.98 48.93)"/><path class="cls-16" d="M194,382.29l-.37-3.07s.39-.12.83.5c2.58,3.61,5.12.44,6.7,4.56.11.28-.17.38-.31.15C199,381.3,197,384.7,194,382.29Z" transform="translate(122.98 48.93)"/><path class="cls-16" d="M194.32,385.31l-.37-3.07s.39-.12.84.5c2.58,3.61,5.12.44,6.69,4.56.11.29-.17.38-.31.15C199.34,384.32,197.32,387.72,194.32,385.31Z" transform="translate(122.98 48.93)"/></g><g class="cls-20"><path class="cls-18" d="M644.15,330.29l-1-7.23-8.55,47.4c-2.07-2.06-5.91-3.25-10.18-2.9-6.19.51-10.94,4.09-10.61,8s5.6,6.64,11.79,6.12c5.56-.46,9.94-3.42,10.56-6.83Z" transform="translate(122.98 48.93)"/><path class="cls-18" d="M641.44,332.3l1.66-9.22s1.25,0,2,2.19c4.26,12.77,14.43,5.84,15.34,19.17.06.92-.84.95-1,.17C656.89,333.91,648,341.95,641.44,332.3Z" transform="translate(122.98 48.93)"/><path class="cls-18" d="M639.8,341.39l1.66-9.22s1.24,0,2,2.19c4.26,12.77,14.43,5.84,15.34,19.16.06.92-.85.95-1,.17C655.25,343,646.35,351,639.8,341.39Z" transform="translate(122.98 48.93)"/></g><g class="cls-20"><path class="cls-21" d="M650.31,393.65l-2.94-3.82,10.44,30a8.72,8.72,0,0,0-6.8,1.63c-3.39,2.3-5,5.9-3.52,8s5.38,2,8.77-.3c3.05-2.07,4.61-5.19,3.86-7.35Z" transform="translate(122.98 48.93)"/><path class="cls-21" d="M649.4,395.68l-2-5.85s.71-.41,1.85.62c6.59,6,10.2-1.31,15,6.06.33.51-.18.82-.54.43C658.81,391.61,656.3,399.11,649.4,395.68Z" transform="translate(122.98 48.93)"/><path class="cls-21" d="M651.4,401.45l-2-5.85s.71-.41,1.85.62c6.59,6,10.2-1.32,15,6.06.33.51-.18.82-.54.43C660.82,397.37,658.3,404.88,651.4,401.45Z" transform="translate(122.98 48.93)"/></g><path class="cls-16" d="M711.54,567.8,711,565l-2.4,19a5.24,5.24,0,0,0-4.09-.94c-2.44.33-4.25,1.85-4,3.39s2.36,2.51,4.8,2.18c2.2-.3,3.87-1.56,4-2.93Z" transform="translate(122.98 48.93)"/><path class="cls-16" d="M710.5,568.65,711,565s.49,0,.83.82c2,5,5.84,2,6.48,7.27,0,.36-.31.39-.4.09C716.66,569,713.3,572.34,710.5,568.65Z" transform="translate(122.98 48.93)"/><path class="cls-16" d="M710,572.29l.47-3.69s.49,0,.83.83c2,5,5.84,2,6.48,7.27,0,.36-.32.39-.4.09C716.2,572.61,712.84,576,710,572.29Z" transform="translate(122.98 48.93)"/><g class="cls-20"><path class="cls-18" d="M593,585.74l-.43-2.87-3.29,18.82a5.24,5.24,0,0,0-4-1.13c-2.45.22-4.33,1.65-4.19,3.19s2.24,2.62,4.69,2.4c2.21-.2,3.94-1.38,4.17-2.73Z" transform="translate(122.98 48.93)"/><path class="cls-18" d="M592,586.54l.64-3.66s.49,0,.79.86c1.72,5.05,5.74,2.29,6.12,7.57,0,.36-.33.38-.41.07C598.09,587.15,594.58,590.36,592,586.54Z" transform="translate(122.98 48.93)"/><path class="cls-18" d="M591.33,590.15l.64-3.66s.49,0,.79.86c1.72,5.05,5.74,2.29,6.12,7.57,0,.37-.33.38-.41.07C597.46,590.76,593.94,594,591.33,590.15Z" transform="translate(122.98 48.93)"/></g><g class="cls-20"><path class="cls-22" d="M442.42,515.13l-.42-2.8-3.22,18.41a5.13,5.13,0,0,0-4-1.1c-2.4.21-4.24,1.61-4.1,3.13s2.19,2.56,4.59,2.35c2.16-.19,3.85-1.35,4.08-2.67Z" transform="translate(122.98 48.93)"/><path class="cls-22" d="M441.37,515.91l.63-3.58s.48,0,.77.84c1.68,4.94,5.61,2.23,6,7.4,0,.36-.32.37-.4.07C447.37,516.51,443.93,519.64,441.37,515.91Z" transform="translate(122.98 48.93)"/><path class="cls-22" d="M440.75,519.44l.63-3.58s.48,0,.77.84c1.68,4.94,5.61,2.24,6,7.4,0,.36-.33.37-.4.07C446.75,520,443.32,523.17,440.75,519.44Z" transform="translate(122.98 48.93)"/></g><g class="cls-20"><path class="cls-23" d="M235.83,357.05v-2.84l-6,17.7a5.13,5.13,0,0,0-3.74-1.7c-2.4-.15-4.43.95-4.53,2.46s1.77,2.87,4.17,3c2.16.14,4-.74,4.44-2Z" transform="translate(122.98 48.93)"/><path class="cls-23" d="M234.67,357.66l1.17-3.44s.48.07.63,1c.91,5.14,5.2,3.07,4.79,8.23,0,.36-.38.32-.4,0C240.51,359.17,236.63,361.74,234.67,357.66Z" transform="translate(122.98 48.93)"/><path class="cls-23" d="M233.52,361.06l1.17-3.45s.48.07.63,1c.9,5.14,5.2,3.07,4.79,8.23,0,.36-.38.32-.4,0C239.36,362.56,235.48,365.14,233.52,361.06Z" transform="translate(122.98 48.93)"/></g><path class="cls-16" d="M170.79,385.58l-.86-5.72-6.56,37.55c-1.65-1.62-4.69-2.55-8.07-2.25-4.89.44-8.64,3.29-8.36,6.37s4.46,5.23,9.35,4.79c4.4-.39,7.85-2.75,8.33-5.45C164.8,419.8,170.79,385.58,170.79,385.58Z" transform="translate(122.98 48.93)"/><path class="cls-16" d="M168.65,387.18l1.28-7.31s1,0,1.57,1.72c3.43,10.08,11.44,4.56,12.22,15.1.06.73-.66.75-.81.13C180.89,388.39,173.88,394.78,168.65,387.18Z" transform="translate(122.98 48.93)"/><path class="cls-16" d="M167.39,394.38l1.28-7.31s1,0,1.58,1.72c3.43,10.08,11.44,4.56,12.22,15.1,0,.73-.66.76-.81.14C179.63,395.59,172.62,402,167.39,394.38Z" transform="translate(122.98 48.93)"/><g class="cls-20"><path class="cls-22" d="M140.89,458.82l-1.33-2.51,3.05,18.44a5.13,5.13,0,0,0-4.1.27c-2.19,1-3.46,2.92-2.84,4.3s2.91,1.69,5.11.7c2-.9,3.19-2.54,3-3.87Z" transform="translate(122.98 48.93)"/><path class="cls-22" d="M140.16,459.9l-.59-3.59s.45-.17,1,.54c3.22,4.11,6,.25,8.1,5,.14.33-.18.46-.35.19C146,458.48,143.82,462.57,140.16,459.9Z" transform="translate(122.98 48.93)"/><path class="cls-22" d="M140.75,463.44l-.59-3.59s.45-.17,1,.54c3.22,4.11,6,.25,8.1,5,.14.33-.19.46-.35.2C146.61,462,144.4,466.11,140.75,463.44Z" transform="translate(122.98 48.93)"/></g><g class="cls-20"><path class="cls-23" d="M261.45,436.46l-1.39-8.64-9.37,56.92c-2.52-2.43-7.14-3.79-12.24-3.29-7.4.73-13,5.1-12.56,9.77s6.83,7.84,14.23,7.12c6.66-.66,11.84-4.28,12.52-8.38C252.9,488.34,261.45,436.46,261.45,436.46Z" transform="translate(122.98 48.93)"/><path class="cls-23" d="M258.24,438.91l1.83-11.08s1.49,0,2.4,2.58c5.34,15.21,17.39,6.73,18.72,22.67.1,1.1-1,1.15-1.23.21C276.77,440.56,266.26,450.34,258.24,438.91Z" transform="translate(122.98 48.93)"/><path class="cls-23" d="M256.44,449.83l1.83-11.08s1.49,0,2.41,2.58c5.34,15.21,17.38,6.73,18.72,22.67.09,1.1-1,1.15-1.23.22C275,451.47,264.47,461.25,256.44,449.83Z" transform="translate(122.98 48.93)"/></g><g class="cls-20"><path class="cls-23" d="M738.08,412.29l-3.25-9.4.72,65.61c-3.3-2.22-8.75-2.84-14.36-1.27-8.15,2.28-13.58,8.29-12.15,13.42s9.2,7.44,17.34,5.17c7.33-2.05,12.42-7.12,12.37-11.86C738.72,472.09,738.08,412.29,738.08,412.29Z" transform="translate(122.98 48.93)"/><path class="cls-23" d="M735,415.66l-.14-12.76s1.66-.34,3.2,2.42c9,16,20.8,4.11,25.44,21.71.32,1.21-.88,1.49-1.33.48C756,413.85,746.2,426.89,735,415.66Z" transform="translate(122.98 48.93)"/><path class="cls-23" d="M735.1,428.25,735,415.47s1.66-.34,3.21,2.42c9,16,20.8,4.11,25.44,21.7.32,1.22-.89,1.49-1.33.49C756.19,426.44,746.34,439.47,735.1,428.25Z" transform="translate(122.98 48.93)"/></g><path class="cls-22" d="M177,452.24c-7.26,0-13.14,3.71-13.14,8.28s5.88,8.28,13.14,8.28,13.14-3.71,13.14-8.28S184.3,452.24,177,452.24Zm5.26,13.55c-1.77,1.76-5.56.84-8.47-2.07s-3.83-6.7-2.07-8.46,5.56-.85,8.46,2.06S184.08,464,182.31,465.79Z" transform="translate(122.98 48.93)"/><path class="cls-17" d="M465.86,459.75c-12.31,0-22.29,6.29-22.29,14s10,14,22.29,14,22.29-6.29,22.29-14S478.17,459.75,465.86,459.75Zm8.93,23c-3,3-9.43,1.43-14.36-3.51s-6.5-11.36-3.51-14.36,9.43-1.43,14.36,3.5S477.78,479.73,474.78,482.73Z" transform="translate(122.98 48.93)"/><path class="cls-10" d="M526,331.22c-4.73-.43-8.78,1.63-9.05,4.61s3.34,5.75,8.07,6.18,8.78-1.63,9.05-4.61S530.72,331.65,526,331.22Zm2.62,9.14c-1.26,1-3.67.22-5.39-1.85s-2.1-4.59-.84-5.64,3.67-.22,5.39,1.85S529.87,339.31,528.61,340.36Z" transform="translate(122.98 48.93)"/><path class="cls-10" d="M660.43,610.57c-5.38,0-9.74,2.75-9.74,6.14s4.36,6.14,9.74,6.14,9.74-2.75,9.74-6.14S665.8,610.57,660.43,610.57Zm3.9,10c-1.31,1.31-4.12.62-6.27-1.53s-2.84-5-1.53-6.28,4.12-.63,6.27,1.53S665.64,619.3,664.33,620.61Z" transform="translate(122.98 48.93)"/><path class="cls-11" d="M542.56,517.11c-5.38,0-9.74,2.75-9.74,6.14s4.36,6.14,9.74,6.14,9.74-2.75,9.74-6.14S547.94,517.11,542.56,517.11Zm3.9,10c-1.31,1.31-4.12.62-6.27-1.53s-2.84-5-1.53-6.28,4.12-.63,6.27,1.53S547.77,525.84,546.46,527.15Z" transform="translate(122.98 48.93)"/><path class="cls-10" d="M310.69,350.53c-12.86,0-23.28,6.57-23.28,14.67s10.43,14.67,23.28,14.67S334,373.3,334,365.2,323.54,350.53,310.69,350.53Zm9.33,24c-3.13,3.13-9.85,1.49-15-3.66s-6.79-11.87-3.66-15,9.85-1.5,15,3.66S323.15,371.4,320,374.53Z" transform="translate(122.98 48.93)"/><path class="cls-13" d="M365.15,419.46c-5.2,0-9.42,2.66-9.42,5.93s4.22,5.94,9.42,5.94,9.42-2.66,9.42-5.94S370.36,419.46,365.15,419.46Zm3.77,9.71c-1.27,1.26-4,.6-6.07-1.48s-2.75-4.8-1.48-6.07,4-.61,6.07,1.48S370.19,427.9,368.93,429.17Z" transform="translate(122.98 48.93)"/><path class="cls-11" d="M516.76,356.41v18.12a5,5,0,0,0-4-.39c-2.26.6-3.78,2.25-3.4,3.67s2.52,2.08,4.77,1.48c2-.54,3.45-1.93,3.45-3.23V356.41ZM514.06,378c-1.52.8-3,.87-3.42.15s.57-1.95,2.09-2.75,3-.87,3.42-.15S515.58,377.19,514.06,378Z" transform="translate(122.98 48.93)"/><path class="cls-10" d="M604.42,335.63v18.12a5,5,0,0,0-4-.39c-2.26.6-3.78,2.25-3.4,3.67s2.52,2.08,4.77,1.48c2-.54,3.45-1.93,3.45-3.23V335.63Zm-2.7,21.58c-1.52.8-3,.87-3.42.15s.57-1.95,2.09-2.75,3-.87,3.42-.15S603.24,356.41,601.72,357.21Z" transform="translate(122.98 48.93)"/><path class="cls-15" d="M787.2,555.71l2.48,24.52a6.76,6.76,0,0,0-5.42,0c-3,1.13-4.8,3.56-4.09,5.43s3.69,2.48,6.66,1.35c2.67-1,4.41-3.08,4.23-4.85-.07-.7-2.69-26.58-2.69-26.58Zm-.7,29.57c-1.95,1.29-4,1.59-4.6.67s.5-2.71,2.45-4,4-1.59,4.6-.67S788.44,584,786.5,585.28Z" transform="translate(122.98 48.93)"/><path class="cls-11" d="M320.8,445.57l-15.82,49c-1.9-2.48-5.8-4.29-10.37-4.52-6.62-.33-12.16,2.77-12.37,6.95s5,7.83,11.61,8.16c6,.31,11-2.19,12.15-5.72.45-1.4,17.15-53.07,17.15-53.07ZM294.67,501.5c-4.8.84-9-.32-9.36-2.58s3.23-4.77,8-5.6,9,.33,9.36,2.58S299.48,500.67,294.67,501.5Z" transform="translate(122.98 48.93)"/></g></svg>